<svg xmlns="http://www.w3.org/2000/svg" xmlns:xlink="http://www.w3.org/1999/xlink" preserveAspectRatio="xMidYMid" width="98.532" height="126.282" viewBox="0 0 98.532 126.282">
  <defs>
    <style>
      .cls-1 {
        fill: #00abd0;
      }

      .cls-1, .cls-2, .cls-3 {
        fill-rule: evenodd;
      }

      .cls-2 {
        fill: #444;
      }

      .cls-3 {
        fill: #fdc753;
      }
    </style>
  </defs>
  <g>
    <path d="M97.535,32.339 C95.883,47.985 80.346,74.094 64.757,72.434 C64.714,72.429 64.672,72.418 64.629,72.413 C67.415,72.936 69.387,75.506 69.083,78.385 L58.164,77.223 C58.479,74.240 61.110,72.079 64.073,72.323 C48.887,69.904 39.458,41.744 41.087,26.329 C42.741,10.683 56.717,-0.654 72.305,1.004 C87.893,2.664 99.189,16.692 97.535,32.339 Z" class="cls-1"/>
    <path d="M98.380,32.429 L97.535,32.339 L98.380,32.429 C97.759,38.279 95.287,45.422 91.638,52.124 C87.984,58.822 83.156,65.071 77.728,69.054 C74.659,71.303 71.378,72.823 68.004,73.237 C69.210,74.404 69.963,76.021 69.964,77.796 C69.964,78.020 69.952,78.247 69.928,78.474 L69.839,79.323 L64.351,78.739 C64.038,80.634 63.416,82.137 62.712,83.392 C61.894,84.846 61.022,86.014 60.425,87.275 C60.025,88.118 59.734,89.000 59.623,90.084 C59.597,90.334 59.585,90.577 59.585,90.813 C59.583,92.559 60.238,94.016 60.984,95.695 C61.721,97.361 62.530,99.244 62.529,101.684 C62.529,102.061 62.510,102.450 62.469,102.853 C62.170,105.842 60.821,107.762 59.614,109.507 C58.398,111.274 57.312,112.872 57.033,115.555 L57.033,115.555 C56.985,116.024 56.568,116.365 56.101,116.318 C55.634,116.270 55.294,115.851 55.342,115.382 C55.651,112.276 57.003,110.289 58.216,108.536 C59.440,106.760 60.514,105.223 60.778,102.680 C60.813,102.334 60.829,102.003 60.829,101.684 C60.828,99.631 60.165,98.048 59.430,96.387 C58.704,94.738 57.887,93.006 57.885,90.813 C57.885,90.519 57.900,90.217 57.932,89.909 C58.063,88.612 58.427,87.514 58.891,86.540 C59.356,85.565 59.914,84.711 60.450,83.856 C61.402,82.332 62.288,80.826 62.677,78.561 L58.074,78.071 L57.228,77.981 L57.318,77.132 C57.548,74.975 58.834,73.202 60.597,72.235 C58.345,71.310 56.256,69.860 54.353,68.034 C51.344,65.146 48.769,61.320 46.656,57.052 C42.436,48.512 40.059,38.204 40.055,29.999 C40.055,28.688 40.115,27.429 40.242,26.239 C41.835,11.175 54.514,-0.010 69.278,-0.010 C70.308,-0.010 71.348,0.044 72.395,0.156 C87.402,1.755 98.545,14.480 98.546,29.298 C98.546,30.333 98.491,31.377 98.380,32.429 ZM59.178,76.473 L63.490,76.932 C63.570,76.916 63.650,76.899 63.735,76.908 C63.823,76.917 63.902,76.950 63.979,76.984 L68.230,77.436 C68.072,75.417 66.619,73.717 64.621,73.275 C64.376,73.248 64.137,73.199 63.895,73.160 C63.802,73.155 63.709,73.145 63.617,73.145 C61.561,73.145 59.756,74.517 59.178,76.473 ZM72.215,1.853 C71.228,1.747 70.248,1.696 69.278,1.696 C55.378,1.696 43.430,12.232 41.932,26.419 C41.813,27.542 41.754,28.741 41.754,29.999 C41.753,35.908 43.059,43.093 45.446,49.803 C47.828,56.514 51.299,62.751 55.527,66.800 C58.130,69.295 60.996,70.940 64.073,71.463 C64.147,71.469 64.219,71.467 64.292,71.475 C64.466,71.494 64.626,71.545 64.794,71.577 C64.812,71.579 64.829,71.583 64.847,71.585 C65.292,71.633 65.738,71.656 66.184,71.656 C69.719,71.658 73.300,70.187 76.725,67.677 C80.148,65.170 83.393,61.635 86.227,57.619 C91.900,49.594 95.919,39.621 96.690,32.249 C96.794,31.257 96.846,30.273 96.846,29.298 C96.846,15.348 86.349,3.356 72.215,1.853 ZM69.962,7.893 C57.866,8.442 48.429,18.461 48.429,30.490 C48.429,30.836 48.437,31.184 48.453,31.534 L48.453,31.534 C48.474,32.005 48.111,32.404 47.643,32.425 C47.174,32.447 46.776,32.082 46.755,31.612 C46.738,31.236 46.729,30.862 46.729,30.490 C46.730,17.550 56.877,6.781 69.885,6.188 C70.354,6.167 70.752,6.531 70.773,7.002 C70.794,7.472 70.431,7.871 69.962,7.893 Z" class="cls-2"/>
    <path d="M35.160,82.221 C37.472,81.634 39.837,83.002 40.471,85.321 L31.998,87.655 C31.383,85.404 32.631,83.100 34.795,82.343 C34.738,82.359 34.685,82.383 34.628,82.398 C21.801,85.931 5.227,66.203 1.708,53.328 C-1.812,40.454 5.734,27.153 18.561,23.620 C31.388,20.088 44.640,27.660 48.159,40.535 C51.629,53.229 47.567,78.135 35.160,82.221 Z" class="cls-3"/>
    <path d="M48.132,65.971 C46.742,70.906 44.652,75.424 41.760,78.690 C40.719,79.865 39.564,80.871 38.303,81.670 C39.714,82.281 40.851,83.492 41.291,85.096 L41.516,85.918 L37.386,87.055 C37.482,87.748 37.531,88.404 37.531,89.020 C37.531,91.167 37.007,92.871 36.521,94.387 C36.030,95.910 35.592,97.238 35.593,98.761 C35.593,99.149 35.621,99.552 35.685,99.980 C35.846,101.040 36.203,101.899 36.685,102.716 C37.166,103.531 37.780,104.296 38.430,105.119 C39.722,106.756 41.166,108.669 41.607,111.638 C41.695,112.224 41.735,112.781 41.735,113.314 C41.735,115.465 41.087,117.175 40.500,118.770 C39.908,120.375 39.372,121.867 39.372,123.744 C39.372,124.231 39.408,124.746 39.491,125.298 L39.491,125.298 C39.561,125.764 39.242,126.198 38.778,126.269 C38.313,126.339 37.880,126.019 37.810,125.553 C37.715,124.918 37.672,124.316 37.672,123.744 C37.671,121.527 38.317,119.778 38.906,118.178 C39.501,116.569 40.035,115.111 40.035,113.314 C40.035,112.866 40.002,112.395 39.926,111.893 C39.637,109.991 38.913,108.655 38.026,107.403 C37.142,106.155 36.075,105.019 35.223,103.587 C34.657,102.633 34.200,101.540 34.005,100.234 C33.928,99.723 33.893,99.233 33.893,98.761 C33.894,96.899 34.424,95.362 34.903,93.864 C35.385,92.359 35.830,90.886 35.831,89.020 C35.831,88.549 35.793,88.043 35.728,87.512 L31.404,88.703 L31.178,87.881 C31.051,87.416 30.990,86.946 30.990,86.485 C30.990,85.465 31.301,84.491 31.834,83.657 C31.717,83.660 31.600,83.668 31.483,83.668 C28.213,83.666 24.888,82.499 21.686,80.608 C18.482,78.715 15.393,76.089 12.595,73.097 C7.002,67.105 2.567,59.670 0.888,53.554 C0.282,51.339 -0.007,49.110 -0.007,46.918 C-0.008,35.923 7.264,25.848 18.336,22.797 C20.542,22.189 22.762,21.899 24.947,21.899 C35.901,21.898 45.939,29.197 48.979,40.310 C49.795,43.299 50.198,46.888 50.199,50.717 C50.198,55.676 49.519,61.034 48.132,65.971 ZM32.696,86.578 L39.316,84.754 C38.691,83.634 37.511,82.931 36.237,82.930 C35.984,82.930 35.729,82.965 35.472,83.022 C35.267,83.091 35.063,83.163 34.853,83.221 C34.853,83.221 34.852,83.221 34.852,83.221 C33.534,83.781 32.690,85.079 32.690,86.485 C32.690,86.516 32.695,86.547 32.696,86.578 ZM47.340,40.761 C44.510,30.405 35.150,23.606 24.947,23.605 C22.912,23.605 20.844,23.875 18.786,24.442 C8.469,27.283 1.693,36.678 1.693,46.918 C1.693,48.960 1.962,51.036 2.527,53.102 L1.708,53.328 L2.527,53.103 C3.697,57.395 6.420,62.587 10.000,67.349 C13.576,72.116 18.012,76.461 22.548,79.138 C25.571,80.926 28.626,81.964 31.483,81.962 C32.479,81.962 33.453,81.837 34.403,81.576 C34.406,81.575 34.409,81.574 34.412,81.573 C34.557,81.519 34.695,81.455 34.846,81.413 C34.904,81.397 34.963,81.391 35.021,81.377 C37.065,80.677 38.886,79.364 40.490,77.556 C42.253,75.569 43.743,72.996 44.933,70.087 C47.317,64.271 48.501,57.121 48.499,50.717 C48.500,47.010 48.103,43.552 47.340,40.761 ZM15.790,31.928 C11.058,35.070 7.920,40.225 7.332,45.931 L7.332,45.931 C7.284,46.400 6.866,46.740 6.399,46.692 C5.932,46.643 5.593,46.224 5.641,45.755 C6.284,39.535 9.696,33.930 14.852,30.505 C15.243,30.245 15.770,30.352 16.029,30.745 C16.288,31.138 16.181,31.668 15.790,31.928 Z" class="cls-2"/>
  </g>
</svg>
