<?xml version="1.0" encoding="iso-8859-1"?>
<!-- Generator: Adobe Illustrator 19.0.0, SVG Export Plug-In . SVG Version: 6.00 Build 0)  -->
<svg version="1.1" id="Layer_1" xmlns="http://www.w3.org/2000/svg" xmlns:xlink="http://www.w3.org/1999/xlink" x="0px" y="0px"
	 viewBox="0 0 300.062 300.062" style="enable-background:new 0 0 300.062 300.062;" xml:space="preserve">
<g>
	<path style="fill:#FF7876;" d="M227.556,76.471v147c0-1.5-0.11-2.97-0.32-4.42c-2.14-14.77-14.88-26.12-30.26-26.08
		c-26.523,0.088-40.524,32.139-21.95,51.57h-0.01l41.79,43.44c2.93,3.05,6.84,4.58,10.75,4.58H11.476V76.471H227.556z"/>
	<path style="fill:#FFDB77;" d="M227.556,149.981v69.07h-0.32c-2.14-14.77-14.88-26.12-30.26-26.08
		c-15.12,0.05-27.94,11.35-30.08,26.08h-12.84v73.51h-69.08v-73.51h-73.5v-69.07h73.5v-73.51h69.08v73.51L227.556,149.981
		L227.556,149.981z"/>
	<path style="fill:#FFDB77;" d="M227.556,149.981v69.07h-0.32c-2.14-14.77-14.88-26.12-30.26-26.08
		c-15.12,0.05-27.94,11.35-30.08,26.08h-12.84v73.51h-69.08v-73.51h-73.5v-69.07h73.5v-73.51h69.08v73.51L227.556,149.981
		L227.556,149.981z"/>
	<path style="fill:#FF7876;" d="M280.096,244.542h0.01l-41.8,43.44c-5.858,6.098-15.626,6.115-21.5,0l-41.79-43.44h0.01
		c-18.654-19.514-4.471-51.483,21.95-51.57c15.38-0.04,28.12,11.31,30.26,26.08c0.21,1.45,0.32,2.92,0.32,4.42
		c0-16.87,13.7-30.54,30.59-30.5C284.729,193.055,298.625,225.157,280.096,244.542z"/>
	<path style="fill:#414042;" d="M258.164,185.472c-0.031,0-0.061,0-0.093,0c-8.427,0-16.43,2.729-23.016,7.759v-43.249v-73.51
		c0-4.143-3.357-7.5-7.5-7.5c-3.977,0-75.722,0-77.905,0c18.402-13.327,31.48-31.248,31.508-45.871
		c0.035-18.301-21.382-28.91-36.699-19.747c-11.799,7.061-19.826,24.638-24.943,40.718c-5.118-16.08-13.144-33.657-24.943-40.718
		c-15.312-9.16-36.736,1.438-36.7,19.747c0.028,14.623,13.107,32.545,31.508,45.871c-2.299,0-73.949,0-77.905,0
		c-4.143,0-7.5,3.357-7.5,7.5v73.51v69.07v73.51c0,4.143,3.357,7.5,7.5,7.5c6.162,0,216.945,0,216.081,0
		c6.156-0.001,11.894-2.446,16.153-6.88c0.208-0.216,41.866-43.499,42.063-43.726C308.444,225.299,291.283,185.575,258.164,185.472z
		 M220.055,142.481h-58.5v-58.51h58.5V142.481z M152.165,16.224c2.463-1.474,4.756-1.691,7.432-0.751
		c5.791,2.036,6.566,4.983,6.562,7.599c-0.021,11.137-15.473,29.574-36.51,40.786C134.107,44.871,142.192,22.187,152.165,16.224z
		 M72.873,23.071c-0.005-2.615,0.77-5.563,6.561-7.599c2.669-0.937,4.962-0.727,7.432,0.751
		c9.973,5.963,18.058,28.647,22.517,47.634C88.345,52.646,72.894,34.208,72.873,23.071z M77.475,83.972v58.51h-58.5v-58.51H77.475z
		 M18.975,226.552h58.5v58.51h-58.5C18.975,285.062,18.975,226.552,18.975,226.552z M92.475,285.062v-66.01
		c0-4.143-3.358-7.5-7.5-7.5h-66v-54.07h66c4.142,0,7.5-3.357,7.5-7.5v-66.01c2.892,0,38.518,0,54.08,0v66.01
		c0,4.143,3.357,7.5,7.5,7.5h66v35.802c-20.656-15.749-50.736-6.746-59.059,18.268h-6.941c-4.143,0-7.5,3.357-7.5,7.5v66.01H92.475z
		 M203.589,285.062h-42.034v-47.929C165.137,246.317,166.799,246.818,203.589,285.062z M274.675,239.359
		c-0.069,0.073-0.137,0.146-0.203,0.222l-41.575,43.205c-2.911,3.03-7.756,3.045-10.686-0.004
		c-47.204-49.069-40.816-42.423-41.763-43.423c-5.122-5.358-7.493-12.362-5.914-20.35c6.01-27.963,45.521-22.38,45.521,4.462
		c0,4.143,3.357,7.5,7.5,7.5s7.5-3.357,7.5-7.5c0-12.583,10.173-23,23.011-23c0.018,0,0.038,0,0.057,0
		C278.128,200.535,288.624,224.766,274.675,239.359z"/>
</g>
<g>
</g>
<g>
</g>
<g>
</g>
<g>
</g>
<g>
</g>
<g>
</g>
<g>
</g>
<g>
</g>
<g>
</g>
<g>
</g>
<g>
</g>
<g>
</g>
<g>
</g>
<g>
</g>
<g>
</g>
</svg>
