<svg xmlns="http://www.w3.org/2000/svg" xmlns:xlink="http://www.w3.org/1999/xlink" preserveAspectRatio="xMidYMid" width="59.906" height="59.87" viewBox="0 0 59.906 59.87">
  <defs>
    <style>
      .cls-1 {
        fill: #00a761;
      }

      .cls-1, .cls-2, .cls-3 {
        fill-rule: evenodd;
      }

      .cls-2 {
        fill: #fff;
      }

      .cls-3 {
        fill: #444;
      }
    </style>
  </defs>
  <g>
    <path d="M0.856,29.939 C0.856,37.712 3.885,45.019 9.382,50.510 C14.875,56.006 22.185,59.033 29.961,59.033 C37.731,59.033 45.040,56.006 50.533,50.510 C56.031,45.019 59.059,37.712 59.059,29.939 C59.059,22.171 56.031,14.865 50.533,9.370 C45.040,3.879 37.731,0.851 29.961,0.851 C22.185,0.851 14.875,3.879 9.382,9.374 C3.885,14.865 0.856,22.171 0.856,29.939 Z" class="cls-1"/>
    <path d="M8.117,29.941 C8.117,35.775 10.390,41.258 14.516,45.379 C18.639,49.504 24.124,51.776 29.960,51.776 C35.791,51.776 41.277,49.504 45.400,45.379 C49.526,41.258 51.798,35.775 51.798,29.941 C51.798,24.111 49.526,18.628 45.400,14.504 C41.277,10.383 35.791,8.111 29.960,8.111 C24.124,8.111 18.639,10.383 14.516,14.507 C10.390,18.628 8.117,24.111 8.117,29.941 Z" class="cls-2"/>
    <path d="M51.136,51.112 C45.487,56.765 37.952,59.886 29.961,59.884 C21.963,59.886 14.429,56.765 8.780,51.112 C3.125,45.465 0.003,37.934 0.004,29.939 C0.003,21.949 3.125,14.418 8.780,8.772 C14.429,3.119 21.963,-0.002 29.961,-0.000 C37.952,-0.002 45.487,3.119 51.135,8.768 C56.791,14.418 59.912,21.949 59.911,29.939 C59.912,37.934 56.791,45.465 51.136,51.112 ZM49.931,9.972 C44.594,4.638 37.509,1.704 29.961,1.703 C22.407,1.704 15.322,4.638 9.984,9.976 C4.645,15.312 1.709,22.393 1.708,29.939 C1.709,37.490 4.645,44.572 9.985,49.908 C15.322,55.246 22.407,58.180 29.961,58.181 C37.509,58.180 44.594,55.246 49.931,49.908 C55.271,44.572 58.206,37.490 58.208,29.939 C58.206,22.393 55.271,15.312 49.931,9.972 ZM46.002,45.981 C41.724,50.263 36.013,52.628 29.960,52.627 C23.902,52.628 18.192,50.263 13.914,45.982 C9.630,41.705 7.264,35.996 7.265,29.941 C7.264,23.889 9.630,18.181 13.913,13.905 C18.192,9.623 23.902,7.258 29.960,7.259 C36.013,7.258 41.723,9.623 46.002,13.902 C50.285,18.181 52.651,23.889 52.650,29.941 C52.651,35.996 50.285,41.705 46.002,45.981 ZM44.797,15.106 C40.831,11.142 35.569,8.963 29.960,8.962 C24.346,8.963 19.085,11.142 15.118,15.109 C11.150,19.075 8.970,24.333 8.969,29.941 C8.970,35.553 11.150,40.812 15.118,44.777 C19.085,48.744 24.346,50.923 29.960,50.924 C35.569,50.923 40.830,48.744 44.798,44.777 C48.765,40.812 50.945,35.553 50.947,29.941 C50.945,24.333 48.766,19.075 44.797,15.106 ZM48.995,30.793 L47.108,30.793 C46.637,30.793 46.256,30.412 46.256,29.942 C46.256,29.472 46.637,29.091 47.108,29.091 L48.995,29.091 C49.465,29.091 49.846,29.472 49.846,29.942 C49.846,30.412 49.465,30.793 48.995,30.793 ZM29.960,49.824 C29.490,49.824 29.108,49.443 29.108,48.973 L29.108,47.087 C29.108,46.617 29.490,46.235 29.960,46.235 C30.430,46.235 30.812,46.617 30.812,47.087 L30.812,48.973 C30.812,49.443 30.430,49.824 29.960,49.824 ZM18.014,38.252 C17.616,38.503 17.090,38.384 16.839,37.986 C16.588,37.588 16.706,37.063 17.104,36.812 L29.106,29.241 L29.106,20.870 L29.106,20.870 C29.106,20.400 29.487,20.019 29.958,20.019 C30.428,20.019 30.809,20.400 30.809,20.870 L30.809,29.710 C30.809,30.003 30.660,30.274 30.412,30.430 L18.014,38.252 ZM29.958,13.651 C29.487,13.651 29.106,13.270 29.106,12.799 L29.106,10.913 C29.106,10.443 29.487,10.062 29.958,10.062 C30.428,10.062 30.809,10.443 30.809,10.913 L30.809,12.799 C30.809,13.270 30.428,13.651 29.958,13.651 ZM12.808,30.796 L10.921,30.796 C10.450,30.796 10.069,30.414 10.069,29.944 C10.069,29.474 10.450,29.093 10.921,29.093 L12.808,29.093 C13.278,29.093 13.659,29.474 13.659,29.944 C13.659,30.414 13.278,30.796 12.808,30.796 Z" class="cls-3"/>
  </g>
</svg>
