<svg xmlns="http://www.w3.org/2000/svg" xmlns:xlink="http://www.w3.org/1999/xlink" preserveAspectRatio="xMidYMid" width="73.656" height="43.125" viewBox="0 0 73.656 43.125">
  <defs>
    <style>
      .cls-1 {
        fill: #00a761;
      }

      .cls-1, .cls-2, .cls-3 {
        fill-rule: evenodd;
      }

      .cls-2 {
        fill: #fff;
      }

      .cls-3 {
        fill: #555;
      }
    </style>
  </defs>
  <g>
    <path d="M52.193,21.562 C52.193,29.915 45.420,36.687 37.064,36.687 C28.708,36.687 21.934,29.915 21.934,21.562 C21.934,13.210 28.708,6.439 37.064,6.439 C45.420,6.439 52.193,13.210 52.193,21.562 Z" class="cls-1"/>
    <path d="M45.303,21.562 C45.303,26.111 41.614,29.799 37.064,29.799 C32.513,29.799 28.824,26.111 28.824,21.562 C28.824,17.014 32.513,13.326 37.064,13.326 C41.614,13.326 45.303,17.014 45.303,21.562 Z" class="cls-2"/>
    <path d="M37.064,37.538 C28.237,37.537 21.083,30.386 21.083,21.562 C21.083,12.739 28.237,5.588 37.064,5.587 C45.890,5.588 53.044,12.739 53.045,21.562 C53.044,30.386 45.890,37.537 37.064,37.538 ZM47.160,11.470 C44.573,8.886 41.009,7.290 37.064,7.290 C33.118,7.290 29.554,8.886 26.968,11.470 C24.383,14.056 22.786,17.619 22.786,21.562 C22.786,25.507 24.383,29.069 26.968,31.655 C29.554,34.239 33.118,35.835 37.064,35.835 C41.009,35.835 44.573,34.239 47.160,31.655 C49.745,29.069 51.341,25.507 51.342,21.562 C51.341,17.619 49.745,14.056 47.160,11.470 ZM37.064,30.650 C32.042,30.650 27.973,26.582 27.973,21.562 C27.973,16.543 32.042,12.475 37.064,12.475 C42.085,12.475 46.154,16.543 46.155,21.562 C46.154,26.582 42.085,30.650 37.064,30.650 ZM42.288,16.340 C40.948,15.003 39.107,14.178 37.064,14.178 C35.021,14.178 33.179,15.003 31.840,16.340 C30.502,17.680 29.676,19.521 29.676,21.562 C29.676,23.605 30.502,25.445 31.840,26.785 C33.179,28.122 35.021,28.947 37.064,28.948 C39.107,28.947 40.948,28.122 42.288,26.785 C43.626,25.445 44.451,23.605 44.452,21.562 C44.451,19.521 43.626,17.680 42.288,16.340 Z" class="cls-3"/>
    <path d="M45.900,16.245 C45.900,18.343 44.198,20.044 42.098,20.044 C39.999,20.044 38.297,18.343 38.297,16.245 C38.297,14.146 39.999,12.445 42.098,12.445 C44.198,12.445 45.900,14.146 45.900,16.245 Z" class="cls-2"/>
    <path d="M73.238,22.098 C73.213,22.128 68.995,27.348 62.387,32.591 C55.778,37.824 46.769,43.125 37.064,43.136 C27.080,43.126 17.951,37.827 11.298,32.592 C4.644,27.349 0.454,22.127 0.428,22.095 L0.014,21.579 L0.412,21.051 C0.440,21.015 4.372,15.787 10.901,10.538 C17.428,5.296 26.574,-0.004 37.064,-0.012 C47.386,-0.004 56.417,5.299 62.871,10.540 C69.328,15.791 73.231,21.018 73.258,21.053 L73.654,21.583 L73.238,22.098 ZM69.214,18.897 C67.473,16.979 64.941,14.418 61.796,11.861 C55.504,6.742 46.779,1.684 37.064,1.691 C27.481,1.685 18.886,6.433 12.572,11.386 C7.113,15.663 3.382,20.064 2.188,21.547 C2.276,21.650 2.374,21.764 2.488,21.895 C2.972,22.452 3.688,23.251 4.608,24.212 C6.448,26.132 9.104,28.696 12.352,31.255 C18.849,36.382 27.706,41.444 37.064,41.434 C45.842,41.445 54.326,36.698 60.716,31.736 C66.262,27.440 70.219,23.017 71.480,21.543 C71.401,21.444 71.314,21.335 71.212,21.210 C70.758,20.654 70.085,19.856 69.214,18.897 ZM42.098,20.896 C39.528,20.895 37.446,18.814 37.445,16.245 C37.446,13.675 39.528,11.594 42.098,11.593 C44.668,11.594 46.751,13.675 46.751,16.245 C46.751,18.814 44.668,20.895 42.098,20.896 ZM42.098,13.296 C40.470,13.299 39.152,14.616 39.149,16.245 C39.152,17.873 40.469,19.190 42.098,19.193 C43.727,19.190 45.045,17.873 45.048,16.245 C45.045,14.616 43.727,13.299 42.098,13.296 Z" class="cls-3"/>
  </g>
</svg>
