<svg xmlns="http://www.w3.org/2000/svg" xmlns:xlink="http://www.w3.org/1999/xlink" preserveAspectRatio="xMidYMid" width="72" height="99" viewBox="0 0 72 99">
  <defs>
    <style>
      .cls-1 {
        fill: #ffdfb6;
      }

      .cls-1, .cls-2, .cls-3, .cls-4 {
        fill-rule: evenodd;
      }

      .cls-2 {
        fill: #444;
      }

      .cls-3 {
        fill: #00a761;
      }

      .cls-4 {
        fill: #d8676b;
      }
    </style>
  </defs>
  <g>
    <g>
      <path d="M59.016,42.102 C59.016,42.102 57.972,16.663 57.856,14.456 C57.741,12.249 56.466,9.694 53.916,9.694 C51.366,9.694 50.438,11.785 50.438,13.875 C50.438,15.966 50.902,34.900 50.902,34.900 C50.902,34.900 50.323,13.411 50.323,10.972 C50.323,8.532 48.584,6.906 46.614,6.906 C44.643,6.906 42.557,8.416 42.557,10.507 C42.557,12.598 42.557,34.900 42.557,34.900 C42.557,34.900 42.325,15.037 42.093,13.062 C41.861,11.088 40.625,9.345 38.191,9.345 C35.989,9.345 34.675,11.088 34.675,12.830 C34.675,14.572 34.791,36.410 34.791,36.410 C34.791,36.410 34.443,23.865 34.328,21.542 C34.212,19.219 32.473,18.057 31.546,18.173 C30.619,18.289 28.184,18.638 28.069,21.309 C27.953,23.981 27.721,45.006 27.721,49.768 C27.721,54.530 30.155,58.596 31.778,60.454 C33.400,62.313 34.212,63.939 34.212,66.146 C34.212,68.353 34.212,72.186 34.212,72.186 L54.959,72.186 C54.959,72.186 54.959,68.121 54.959,65.682 C54.959,63.242 56.002,62.661 57.509,61.268 C59.016,59.874 62.029,56.854 62.956,55.924 C63.884,54.995 64.811,51.975 65.854,49.071 C66.897,46.167 71.186,35.945 71.186,35.945 C71.186,35.945 70.056,33.333 66.665,34.319 C63.072,35.365 60.986,44.076 59.016,42.102 Z" class="cls-1"/>
      <path d="M71.912,36.252 C71.912,36.253 71.645,36.889 71.227,37.892 C70.809,38.895 70.241,40.263 69.640,41.721 C68.440,44.633 67.104,47.922 66.596,49.339 C65.816,51.504 65.107,53.746 64.356,55.229 C64.100,55.727 63.846,56.145 63.514,56.483 C62.583,57.415 59.575,60.431 58.044,61.848 C57.457,62.389 56.966,62.794 56.617,63.172 C56.266,63.554 56.049,63.883 55.903,64.379 C55.807,64.711 55.747,65.127 55.747,65.682 C55.747,68.121 55.747,72.186 55.747,72.186 C55.747,72.394 55.663,72.598 55.516,72.745 C55.370,72.892 55.166,72.977 54.959,72.977 L34.212,72.977 C34.004,72.977 33.801,72.892 33.654,72.745 C33.507,72.598 33.423,72.394 33.423,72.186 C33.423,72.186 33.423,68.353 33.423,66.146 C33.421,65.139 33.243,64.308 32.883,63.491 C32.521,62.675 31.964,61.868 31.184,60.975 C30.316,59.979 29.267,58.443 28.419,56.519 C27.574,54.596 26.933,52.285 26.932,49.768 C26.932,47.378 26.990,40.933 27.063,34.745 C27.135,28.553 27.222,22.646 27.281,21.275 C27.313,20.489 27.527,19.818 27.864,19.286 C28.200,18.753 28.648,18.369 29.103,18.102 C30.011,17.570 30.958,17.454 31.443,17.390 L31.677,17.375 C32.074,17.377 32.457,17.488 32.831,17.675 C33.204,17.863 33.566,18.132 33.893,18.482 C33.899,18.489 33.904,18.498 33.911,18.505 C33.897,15.592 33.887,13.344 33.887,12.830 C33.888,11.761 34.285,10.704 35.029,9.897 C35.769,9.089 36.880,8.551 38.191,8.555 C39.595,8.548 40.760,9.081 41.542,9.921 C41.639,10.025 41.714,10.143 41.800,10.254 C41.880,9.048 42.493,8.016 43.343,7.314 C44.257,6.558 45.427,6.119 46.614,6.116 C47.816,6.115 48.952,6.615 49.776,7.477 C50.411,8.139 50.854,9.020 51.026,10.031 C51.290,9.767 51.586,9.529 51.937,9.350 C52.503,9.058 53.171,8.903 53.916,8.903 C54.685,8.902 55.388,9.101 55.981,9.441 C56.576,9.780 57.060,10.253 57.440,10.788 C58.201,11.861 58.576,13.177 58.644,14.415 C58.750,16.440 59.624,37.712 59.780,41.490 C59.860,41.425 59.956,41.337 60.068,41.208 C60.369,40.863 60.730,40.314 61.115,39.675 C61.893,38.394 62.772,36.761 63.852,35.469 C64.575,34.612 65.398,33.871 66.445,33.560 C67.048,33.384 67.605,33.306 68.114,33.306 C69.470,33.301 70.458,33.879 71.046,34.449 C71.641,35.019 71.881,35.570 71.909,35.631 C71.994,35.827 71.995,36.054 71.912,36.252 ZM68.114,34.887 C67.766,34.887 67.360,34.940 66.885,35.078 C66.512,35.186 66.110,35.431 65.701,35.806 C65.292,36.180 64.882,36.675 64.486,37.232 C63.691,38.348 62.960,39.699 62.264,40.822 C61.793,41.573 61.358,42.223 60.814,42.689 C60.575,42.888 60.271,43.037 59.927,43.112 C59.856,43.142 59.781,43.154 59.703,43.163 C59.672,43.165 59.650,43.182 59.619,43.182 C59.610,43.182 59.603,43.176 59.595,43.176 C59.585,43.176 59.576,43.181 59.566,43.180 C59.373,43.166 59.185,43.159 59.001,43.159 C57.584,43.161 56.430,43.552 55.452,44.151 C54.476,44.751 53.682,45.571 53.057,46.420 C51.804,48.116 51.248,49.917 51.201,50.085 L51.198,50.097 L51.198,50.097 C51.081,50.517 50.645,50.763 50.226,50.645 C49.807,50.528 49.562,50.091 49.679,49.671 C49.690,49.633 50.000,48.527 50.749,47.132 C51.499,45.739 52.688,44.043 54.512,42.876 C55.538,42.221 56.782,41.767 58.207,41.636 C58.181,40.992 58.130,39.755 58.063,38.125 C57.963,35.706 57.829,32.457 57.692,29.139 C57.416,22.507 57.126,15.587 57.069,14.498 C57.032,13.772 56.846,12.988 56.522,12.326 C56.199,11.660 55.747,11.125 55.200,10.814 C54.834,10.606 54.421,10.485 53.916,10.484 C53.385,10.485 52.981,10.590 52.656,10.756 C52.332,10.924 52.077,11.156 51.866,11.455 C51.443,12.049 51.224,12.944 51.227,13.875 C51.227,15.412 51.487,26.473 51.618,31.890 C51.661,33.697 51.690,34.877 51.690,34.880 C51.691,34.905 51.680,34.926 51.678,34.951 C51.673,35.031 51.665,35.112 51.637,35.186 C51.562,35.379 51.414,35.536 51.225,35.620 C51.131,35.663 51.029,35.687 50.922,35.690 C50.816,35.693 50.713,35.674 50.616,35.636 C50.520,35.599 50.433,35.543 50.359,35.473 C50.359,35.473 50.359,35.473 50.359,35.473 C50.357,35.471 50.356,35.469 50.355,35.467 C50.283,35.398 50.224,35.316 50.183,35.224 C50.149,35.146 50.135,35.061 50.126,34.975 C50.124,34.956 50.114,34.940 50.114,34.921 C50.114,34.921 50.114,34.919 50.114,34.919 C50.114,34.919 50.114,34.919 50.114,34.919 C50.114,34.919 50.113,34.906 50.113,34.903 C50.108,34.710 49.966,29.444 49.824,23.871 C49.679,18.188 49.534,12.221 49.534,10.972 C49.532,9.940 49.174,9.133 48.638,8.571 C48.100,8.010 47.381,7.697 46.614,7.696 C45.829,7.693 44.971,8.009 44.350,8.530 C43.724,9.056 43.346,9.735 43.345,10.507 C43.345,11.552 43.345,17.650 43.345,23.487 C43.345,29.324 43.345,34.900 43.345,34.900 C43.345,35.334 42.994,35.688 42.561,35.690 C42.128,35.693 41.773,35.343 41.768,34.909 C41.768,34.909 41.768,34.900 41.768,34.900 L41.768,34.900 C41.768,34.900 41.768,34.894 41.768,34.894 C41.768,34.851 41.757,33.926 41.737,32.454 C41.718,30.949 41.689,28.888 41.655,26.668 C41.585,22.229 41.491,17.143 41.392,14.598 C41.364,13.877 41.333,13.344 41.310,13.155 C41.210,12.300 40.893,11.533 40.394,11.006 C39.891,10.480 39.221,10.142 38.191,10.135 C37.300,10.140 36.653,10.472 36.186,10.971 C35.722,11.471 35.462,12.157 35.464,12.830 C35.464,14.129 35.529,26.745 35.562,32.966 C35.572,35.041 35.580,36.402 35.580,36.406 C35.582,36.840 35.237,37.193 34.804,37.200 C34.371,37.207 34.015,36.866 34.003,36.432 C34.003,36.430 33.981,35.648 33.947,34.436 C33.912,33.224 33.865,31.583 33.815,29.870 C33.713,26.447 33.597,22.723 33.540,21.581 C33.504,20.886 33.301,20.346 33.031,19.932 C32.762,19.519 32.418,19.235 32.122,19.087 C31.927,18.987 31.755,18.954 31.677,18.955 L31.649,18.957 L31.644,18.957 C31.309,18.998 30.819,19.070 30.351,19.250 C29.881,19.432 29.466,19.703 29.197,20.131 C29.016,20.420 28.882,20.794 28.856,21.344 C28.800,22.645 28.712,28.586 28.640,34.764 C28.567,40.947 28.509,47.396 28.509,49.768 C28.509,52.013 29.085,54.116 29.862,55.881 C30.637,57.645 31.616,59.071 32.371,59.934 C33.214,60.899 33.874,61.835 34.324,62.849 C34.774,63.861 35.002,64.946 35.000,66.146 C35.000,67.739 35.000,70.162 35.000,71.396 L54.170,71.396 C54.170,70.094 54.170,67.459 54.170,65.682 C54.170,65.016 54.241,64.445 54.388,63.939 C54.534,63.432 54.758,62.996 55.029,62.620 C55.578,61.867 56.252,61.360 56.974,60.687 C58.456,59.316 61.475,56.292 62.399,55.365 C62.530,55.238 62.740,54.931 62.951,54.511 C63.166,54.090 63.393,53.555 63.627,52.952 C64.094,51.745 64.587,50.267 65.112,48.803 C65.647,47.316 66.977,44.042 68.182,41.118 C69.121,38.838 69.973,36.799 70.306,36.005 C70.222,35.884 70.113,35.740 69.958,35.593 C69.578,35.238 69.030,34.892 68.114,34.887 ZM31.448,17.389 C31.447,17.389 31.444,17.390 31.443,17.390 L31.442,17.390 L31.448,17.389 Z" class="cls-2"/>
      <path d="M32.878,79.621 L56.176,79.621 C56.912,79.621 57.509,79.023 57.509,78.285 L57.509,70.734 C57.509,69.996 56.912,69.399 56.176,69.399 L32.878,69.399 C32.142,69.399 31.546,69.996 31.546,70.734 L31.546,78.285 C31.546,79.023 32.142,79.621 32.878,79.621 Z" class="cls-3"/>
      <path d="M32.878,79.621 L32.878,80.411 L56.176,80.411 C57.348,80.410 58.297,79.459 58.297,78.285 L58.297,70.734 C58.297,69.560 57.348,68.609 56.176,68.608 L32.878,68.608 C31.706,68.609 30.758,69.560 30.757,70.734 L30.757,78.285 C30.758,79.459 31.706,80.410 32.878,80.411 L32.878,79.621 L32.878,78.830 C32.578,78.830 32.335,78.586 32.334,78.285 L32.334,70.734 C32.335,70.433 32.578,70.189 32.878,70.189 L56.176,70.189 C56.476,70.189 56.720,70.433 56.720,70.734 L56.720,78.285 C56.720,78.586 56.476,78.830 56.176,78.830 L32.878,78.830 L32.878,79.621 Z" class="cls-2"/>
    </g>
    <g>
      <path d="M13.696,61.616 C13.696,61.616 14.739,36.178 14.855,33.971 C14.971,31.764 16.246,29.208 18.796,29.208 C21.346,29.208 22.273,31.299 22.273,33.390 C22.273,35.481 21.810,54.414 21.810,54.414 C21.810,54.414 22.389,32.925 22.389,30.486 C22.389,28.047 24.128,26.420 26.098,26.420 C28.069,26.420 30.155,27.930 30.155,30.021 C30.155,32.112 30.155,54.414 30.155,54.414 C30.155,54.414 30.387,34.551 30.619,32.577 C30.850,30.602 32.087,28.860 34.521,28.860 C36.723,28.860 38.037,30.602 38.037,32.344 C38.037,34.087 37.921,55.924 37.921,55.924 C37.921,55.924 38.268,43.379 38.384,41.056 C38.500,38.733 40.239,37.572 41.166,37.688 C42.093,37.804 44.527,38.152 44.643,40.824 C44.759,43.496 44.991,64.520 44.991,69.282 C44.991,74.045 42.557,78.110 40.934,79.969 C39.311,81.827 38.500,83.454 38.500,85.661 C38.500,87.868 38.500,91.701 38.500,91.701 L17.753,91.701 C17.753,91.701 17.753,87.635 17.753,85.196 C17.753,82.757 16.710,82.176 15.203,80.782 C13.696,79.388 10.683,76.368 9.755,75.439 C8.828,74.510 7.901,71.489 6.858,68.585 C5.815,65.682 1.526,55.460 1.526,55.460 C1.526,55.460 2.656,52.847 6.046,53.834 C9.639,54.879 11.726,63.591 13.696,61.616 Z" class="cls-1"/>
      <path d="M39.834,98.206 L16.535,98.206 C15.799,98.206 15.203,97.608 15.203,96.870 L15.203,89.319 C15.203,88.582 15.799,87.984 16.535,87.984 L39.834,87.984 C40.569,87.984 41.166,88.582 41.166,89.319 L41.166,96.870 C41.166,97.608 40.569,98.206 39.834,98.206 Z" class="cls-4"/>
      <path d="M44.292,76.033 C43.445,77.958 42.395,79.494 41.528,80.489 C40.747,81.382 40.191,82.189 39.829,83.005 C39.468,83.822 39.290,84.653 39.289,85.661 C39.289,86.062 39.289,86.524 39.289,87.000 L37.712,87.000 C37.712,86.524 37.712,86.062 37.712,85.661 C37.710,84.461 37.937,83.376 38.388,82.363 C38.838,81.349 39.498,80.414 40.341,79.448 C41.096,78.585 42.075,77.159 42.850,75.396 C43.627,73.631 44.203,71.528 44.202,69.282 C44.202,66.910 44.144,60.461 44.072,54.278 C44.000,48.100 43.912,42.159 43.855,40.858 C43.830,40.308 43.696,39.934 43.515,39.646 C43.333,39.358 43.093,39.147 42.809,38.979 C42.242,38.640 41.512,38.524 41.068,38.472 L41.064,38.471 L41.034,38.470 C40.956,38.468 40.784,38.501 40.589,38.601 C40.393,38.700 40.173,38.859 39.970,39.077 C39.563,39.514 39.220,40.171 39.172,41.096 C39.086,42.814 38.868,50.318 38.765,53.950 C38.730,55.163 38.709,55.944 38.709,55.946 C38.697,56.380 38.341,56.722 37.907,56.714 C37.474,56.707 37.130,56.354 37.132,55.920 C37.132,55.917 37.139,54.555 37.150,52.481 C37.161,50.406 37.175,47.622 37.190,44.784 C37.219,39.108 37.248,33.209 37.248,32.344 C37.249,31.671 36.989,30.985 36.526,30.486 C36.059,29.987 35.412,29.654 34.521,29.650 C33.491,29.657 32.821,29.995 32.317,30.520 C31.818,31.048 31.501,31.814 31.402,32.669 C31.385,32.809 31.362,33.150 31.341,33.609 C31.320,34.071 31.299,34.662 31.278,35.349 C31.236,36.724 31.196,38.481 31.158,40.370 C31.084,44.147 31.021,48.452 30.983,51.290 C30.958,53.183 30.943,54.420 30.943,54.424 C30.938,54.857 30.583,55.207 30.150,55.204 C29.717,55.202 29.366,54.848 29.366,54.414 C29.366,54.414 29.366,32.112 29.366,30.021 C29.366,29.249 28.988,28.570 28.362,28.045 C27.740,27.524 26.882,27.207 26.098,27.211 C25.331,27.211 24.612,27.524 24.074,28.085 C23.538,28.648 23.180,29.455 23.178,30.486 C23.177,31.736 23.033,37.702 22.888,43.385 C22.745,48.958 22.603,54.225 22.598,54.417 C22.598,54.421 22.598,54.434 22.598,54.434 C22.598,54.434 22.598,54.434 22.598,54.434 C22.598,54.434 22.598,54.436 22.598,54.436 C22.597,54.455 22.587,54.471 22.585,54.490 C22.577,54.576 22.563,54.661 22.528,54.738 C22.489,54.826 22.431,54.904 22.364,54.971 C22.360,54.976 22.358,54.982 22.353,54.987 C22.353,54.987 22.353,54.987 22.353,54.987 C22.279,55.057 22.192,55.113 22.095,55.151 C21.999,55.188 21.896,55.207 21.789,55.204 C21.683,55.201 21.581,55.177 21.486,55.135 C21.392,55.092 21.308,55.032 21.237,54.958 C21.237,54.958 21.237,54.958 21.237,54.958 C21.237,54.957 21.236,54.956 21.235,54.955 C21.167,54.882 21.112,54.796 21.075,54.700 C21.046,54.626 21.039,54.546 21.034,54.465 C21.032,54.441 21.021,54.420 21.021,54.395 C21.021,54.392 21.050,53.212 21.094,51.404 C21.137,49.597 21.195,47.165 21.253,44.668 C21.369,39.678 21.485,34.407 21.485,33.390 C21.486,32.693 21.366,32.011 21.124,31.468 C20.880,30.921 20.539,30.521 20.056,30.271 C19.731,30.105 19.327,29.999 18.796,29.998 C18.290,30.000 17.878,30.121 17.511,30.329 C17.146,30.537 16.826,30.841 16.554,31.221 C16.011,31.977 15.691,33.043 15.643,34.012 C15.556,35.652 14.948,50.385 14.649,57.639 C14.549,60.059 14.484,61.644 14.484,61.648 C14.476,61.847 14.393,62.035 14.253,62.176 C13.961,62.476 13.540,62.700 13.093,62.696 C12.724,62.696 12.404,62.560 12.146,62.389 C11.885,62.216 11.665,62.002 11.455,61.761 C11.037,61.278 10.651,60.674 10.247,60.009 C9.448,58.683 8.586,57.109 7.652,55.999 C7.033,55.255 6.394,54.751 5.826,54.592 C5.352,54.454 4.946,54.401 4.597,54.401 C3.818,54.405 3.313,54.656 2.939,54.947 C2.679,55.150 2.521,55.356 2.408,55.524 C2.742,56.323 3.593,58.358 4.530,60.632 C5.734,63.557 7.065,66.830 7.600,68.318 C8.384,70.508 9.110,72.753 9.761,74.025 C9.972,74.446 10.182,74.753 10.313,74.880 C11.237,75.806 14.255,78.830 15.738,80.201 C16.282,80.706 16.790,81.118 17.249,81.609 C17.706,82.097 18.106,82.691 18.324,83.453 C18.470,83.960 18.541,84.530 18.541,85.196 C18.541,85.737 18.541,86.361 18.541,87.000 L16.964,87.000 C16.964,86.361 16.964,85.737 16.964,85.196 C16.964,84.642 16.905,84.225 16.809,83.893 C16.712,83.561 16.581,83.308 16.403,83.059 C16.054,82.564 15.453,82.083 14.668,81.363 C13.137,79.946 10.128,76.930 9.198,75.998 C8.865,75.660 8.611,75.241 8.356,74.743 C8.103,74.246 7.860,73.670 7.615,73.039 C7.126,71.777 6.634,70.294 6.116,68.853 C5.735,67.793 4.887,65.672 3.982,63.455 C3.077,61.236 2.112,58.911 1.485,57.407 C1.067,56.404 0.800,55.768 0.799,55.766 C0.716,55.569 0.717,55.342 0.802,55.146 C0.831,55.084 1.071,54.534 1.666,53.963 C2.253,53.394 3.241,52.816 4.597,52.821 C5.107,52.820 5.664,52.899 6.266,53.074 C7.597,53.477 8.569,54.544 9.428,55.715 C10.281,56.894 11.011,58.232 11.662,59.299 C12.091,60.008 12.498,60.597 12.803,60.893 C12.855,60.945 12.891,60.968 12.932,61.001 C13.088,57.213 13.962,35.954 14.068,33.929 C14.117,33.000 14.344,32.030 14.772,31.148 C15.199,30.269 15.837,29.467 16.730,28.955 C17.324,28.615 18.027,28.417 18.796,28.418 C19.540,28.417 20.209,28.573 20.775,28.864 C21.126,29.044 21.420,29.287 21.685,29.552 C21.856,28.538 22.299,27.655 22.936,26.991 C23.759,26.129 24.895,25.629 26.098,25.630 C27.284,25.633 28.455,26.072 29.369,26.829 C30.215,27.528 30.842,28.550 30.926,29.749 C31.008,29.645 31.078,29.533 31.170,29.435 C31.951,28.596 33.116,28.063 34.521,28.069 C35.832,28.065 36.943,28.604 37.683,29.412 C38.427,30.219 38.824,31.275 38.825,32.344 C38.825,32.861 38.815,35.130 38.801,38.065 C39.135,37.697 39.495,37.384 39.880,37.189 C40.254,37.003 40.637,36.891 41.034,36.889 L41.268,36.904 C41.629,36.950 42.256,37.032 42.926,37.289 C43.595,37.545 44.340,37.998 44.848,38.801 C45.185,39.332 45.398,40.003 45.431,40.790 C45.490,42.160 45.576,48.067 45.649,54.260 C45.721,60.448 45.779,66.892 45.779,69.282 C45.779,71.800 45.138,74.111 44.292,76.033 ZM41.268,36.904 L41.268,36.904 C41.267,36.904 41.265,36.904 41.264,36.903 L41.268,36.904 ZM16.163,87.006 L39.831,87.006 C41.021,87.007 41.985,87.972 41.985,89.165 L41.985,96.837 C41.985,98.029 41.021,98.995 39.831,98.996 L16.163,98.996 C14.973,98.995 14.009,98.029 14.008,96.837 L14.008,89.165 C14.009,87.972 14.973,87.007 16.163,87.006 ZM15.610,96.837 C15.611,97.142 15.858,97.390 16.163,97.390 L39.831,97.390 C40.136,97.390 40.383,97.142 40.383,96.837 L40.383,89.165 C40.383,88.860 40.136,88.612 39.831,88.612 L16.163,88.612 C15.858,88.612 15.611,88.860 15.610,89.165 L15.610,96.837 Z" class="cls-2"/>
    </g>
    <path d="M25.304,14.817 C24.657,15.147 23.866,14.889 23.536,14.241 L17.277,1.928 C16.948,1.280 17.205,0.487 17.852,0.157 C18.499,-0.173 19.290,0.085 19.619,0.733 L25.878,13.045 C26.208,13.693 25.951,14.487 25.304,14.817 ZM18.516,18.453 C18.041,19.004 17.212,19.065 16.662,18.589 L6.462,9.761 C5.913,9.286 5.852,8.454 6.327,7.904 C6.801,7.353 7.631,7.292 8.180,7.768 L18.380,16.596 C18.930,17.071 18.990,17.903 18.516,18.453 ZM14.647,24.762 C14.537,25.481 13.866,25.974 13.149,25.864 L1.094,24.005 C0.377,23.895 -0.115,23.222 -0.005,22.503 C0.106,21.784 0.777,21.291 1.494,21.402 L13.548,23.260 C14.266,23.371 14.758,24.043 14.647,24.762 Z" class="cls-2"/>
  </g>
</svg>
