<svg xmlns="http://www.w3.org/2000/svg" xmlns:xlink="http://www.w3.org/1999/xlink" preserveAspectRatio="xMidYMid" width="62.781" height="64.094" viewBox="0 0 62.781 64.094">
  <defs>
    <style>
      .cls-1 {
        fill: #00abd0;
      }

      .cls-1, .cls-2, .cls-3 {
        fill-rule: evenodd;
      }

      .cls-2 {
        fill: #fff;
      }

      .cls-3 {
        fill: #555;
      }
    </style>
  </defs>
  <g>
    <path d="M54.399,52.130 L52.288,52.252 C49.696,52.406 47.503,54.188 46.817,56.677 L46.253,58.715 C46.089,59.309 45.689,59.791 45.136,60.057 C44.583,60.324 43.968,60.344 43.394,60.119 L41.437,59.309 C39.040,58.326 36.284,58.972 34.593,60.928 L33.210,62.515 C32.821,62.966 32.277,63.222 31.683,63.242 C31.048,63.263 30.454,63.017 30.034,62.536 L28.619,60.959 C26.878,59.012 24.132,58.418 21.744,59.453 L19.808,60.282 C19.009,60.630 18.086,60.446 17.472,59.832 C17.215,59.576 17.041,59.279 16.939,58.931 L16.345,56.902 C16.068,55.929 15.535,55.028 14.819,54.311 C13.742,53.235 12.318,52.611 10.802,52.549 L8.691,52.468 C8.158,52.447 7.656,52.232 7.277,51.853 C6.785,51.361 6.560,50.685 6.683,50.009 L7.031,47.920 C7.349,46.005 6.724,44.028 5.351,42.655 C4.931,42.235 4.459,41.887 3.926,41.601 L2.072,40.607 C1.887,40.505 1.724,40.382 1.570,40.228 C0.842,39.501 0.740,38.353 1.344,37.503 L2.564,35.773 C4.060,33.663 4.039,30.836 2.513,28.736 L1.263,27.036 C0.904,26.534 0.771,25.930 0.904,25.326 C1.037,24.722 1.406,24.230 1.949,23.933 L3.794,22.909 C6.058,21.649 7.267,19.088 6.796,16.548 L6.416,14.469 C6.304,13.865 6.458,13.260 6.837,12.779 C7.216,12.297 7.769,12.010 8.384,11.970 L10.494,11.847 C13.087,11.693 15.279,9.911 15.966,7.422 L16.529,5.384 C16.693,4.790 17.082,4.319 17.646,4.042 C18.199,3.776 18.814,3.756 19.388,3.981 L21.345,4.790 C23.742,5.773 26.499,5.128 28.189,3.172 L29.573,1.584 C29.961,1.134 30.505,0.878 31.099,0.857 C31.734,0.837 32.329,1.082 32.749,1.564 L34.163,3.141 C35.904,5.087 38.650,5.681 41.038,4.646 L42.974,3.817 C43.773,3.469 44.696,3.653 45.310,4.267 C45.567,4.523 45.741,4.821 45.843,5.169 L46.437,7.197 C46.714,8.170 47.247,9.071 47.964,9.788 C49.040,10.864 50.464,11.489 51.980,11.550 L54.091,11.632 C54.624,11.652 55.126,11.867 55.505,12.247 C55.997,12.738 56.222,13.414 56.099,14.090 L55.751,16.179 C55.423,18.105 56.058,20.071 57.432,21.444 C57.851,21.864 58.323,22.212 58.856,22.499 L60.720,23.502 C60.905,23.605 61.069,23.727 61.223,23.882 C61.950,24.609 62.052,25.756 61.448,26.606 L60.229,28.337 C58.733,30.446 58.753,33.274 60.280,35.373 L61.530,37.073 C61.888,37.575 62.021,38.180 61.888,38.784 C61.755,39.388 61.386,39.879 60.843,40.177 L58.999,41.201 C56.735,42.461 55.526,45.022 55.997,47.562 L56.377,49.641 C56.489,50.245 56.335,50.849 55.956,51.331 C55.556,51.812 55.003,52.099 54.399,52.130 Z" class="cls-1"/>
    <path d="M53.154,32.050 C53.154,44.062 43.413,53.800 31.396,53.800 C19.380,53.800 9.638,44.062 9.638,32.050 C9.638,20.038 19.380,10.300 31.396,10.300 C43.413,10.300 53.154,20.038 53.154,32.050 Z" class="cls-2"/>
    <path d="M24.848,40.523 L19.131,40.523 L19.131,27.341 L24.848,27.341 L24.848,40.523 Z" class="cls-1"/>
    <path d="M62.142,27.099 C62.143,27.099 62.143,27.098 62.143,27.098 L62.144,27.096 L62.142,27.099 ZM60.925,28.827 L60.923,28.829 C60.288,29.725 59.972,30.768 59.972,31.815 C59.972,32.887 60.304,33.958 60.969,34.873 L60.966,34.869 L62.220,36.575 L62.223,36.579 C62.587,37.088 62.791,37.696 62.790,38.323 C62.790,38.538 62.766,38.753 62.720,38.967 C62.541,39.801 62.003,40.517 61.253,40.923 L59.413,41.945 C57.747,42.871 56.747,44.618 56.747,46.467 C56.747,46.778 56.775,47.092 56.834,47.406 L56.834,47.409 L57.214,49.486 C57.247,49.666 57.264,49.848 57.264,50.028 C57.265,50.691 57.036,51.335 56.625,51.857 L56.618,51.866 L56.611,51.874 C56.074,52.526 55.291,52.938 54.442,52.980 L54.448,52.980 L52.338,53.102 C50.109,53.235 48.227,54.765 47.638,56.904 L47.074,58.942 C46.849,59.765 46.278,60.455 45.505,60.825 C45.093,61.023 44.647,61.125 44.200,61.125 C43.820,61.125 43.442,61.052 43.083,60.911 L43.079,60.910 L41.114,60.097 C40.471,59.833 39.801,59.706 39.137,59.706 C37.667,59.707 36.236,60.329 35.238,61.484 L35.235,61.487 L33.854,63.072 C33.314,63.701 32.533,64.067 31.713,64.093 L31.708,64.093 L31.609,64.095 C30.777,64.098 29.964,63.748 29.400,63.103 L29.399,63.104 L27.985,61.526 C26.973,60.397 25.581,59.803 24.151,59.802 C23.457,59.802 22.755,59.942 22.083,60.234 L22.080,60.235 L20.148,61.063 C19.770,61.228 19.368,61.309 18.972,61.308 C18.196,61.309 17.436,61.001 16.869,60.434 C16.515,60.083 16.259,59.644 16.122,59.170 L15.526,57.135 C15.290,56.306 14.830,55.526 14.216,54.913 C13.289,53.987 12.071,53.453 10.769,53.400 L8.658,53.318 C7.917,53.291 7.206,52.986 6.675,52.455 C6.121,51.902 5.797,51.157 5.798,50.374 C5.798,50.208 5.813,50.039 5.844,49.869 L5.843,49.869 L6.191,47.781 C6.238,47.499 6.260,47.216 6.260,46.933 C6.261,45.567 5.722,44.229 4.749,43.258 C4.387,42.897 3.987,42.600 3.524,42.351 L1.658,41.351 C1.408,41.213 1.174,41.037 0.967,40.830 C0.396,40.259 0.098,39.498 0.098,38.734 C0.098,38.136 0.280,37.529 0.651,37.010 L0.648,37.014 L1.867,35.282 L1.869,35.280 C2.504,34.384 2.820,33.341 2.820,32.294 C2.820,31.222 2.488,30.151 1.824,29.236 L1.827,29.240 L0.569,27.531 C0.205,27.022 0.001,26.413 0.002,25.786 C0.002,25.573 0.025,25.356 0.072,25.143 C0.252,24.308 0.789,23.592 1.539,23.186 L1.536,23.188 L3.379,22.165 C5.045,21.238 6.045,19.492 6.045,17.643 C6.045,17.331 6.016,17.017 5.958,16.701 L5.578,14.623 C5.545,14.444 5.528,14.263 5.528,14.081 C5.527,13.419 5.755,12.774 6.167,12.253 C6.693,11.581 7.482,11.173 8.328,11.120 L8.315,11.121 L10.443,10.997 C12.673,10.865 14.554,9.334 15.145,7.196 L15.708,5.157 C15.929,4.339 16.500,3.650 17.271,3.278 L17.277,3.275 C17.688,3.077 18.135,2.974 18.583,2.974 C18.961,2.974 19.340,3.047 19.700,3.188 L19.702,3.189 L21.670,4.003 L21.668,4.002 C22.310,4.266 22.981,4.393 23.645,4.393 C25.115,4.392 26.546,3.770 27.545,2.615 L27.547,2.613 L28.930,1.025 L28.928,1.028 C29.467,0.398 30.249,0.032 31.069,0.006 L31.172,0.004 C32.004,0.001 32.818,0.351 33.383,0.996 L33.383,0.996 L34.797,2.573 C35.808,3.702 37.200,4.296 38.630,4.297 C39.324,4.297 40.026,4.156 40.699,3.865 L40.702,3.864 L42.634,3.037 C43.012,2.872 43.413,2.791 43.810,2.791 C44.586,2.791 45.345,3.098 45.913,3.665 C46.267,4.016 46.523,4.455 46.660,4.930 L47.254,6.958 L47.256,6.964 C47.492,7.794 47.952,8.573 48.566,9.186 C49.493,10.112 50.711,10.646 52.013,10.699 L54.124,10.781 C54.865,10.808 55.576,11.113 56.107,11.645 C56.661,12.197 56.985,12.943 56.984,13.725 C56.984,13.894 56.968,14.062 56.939,14.230 L56.939,14.230 L56.938,14.240 L56.938,14.241 L56.937,14.241 L56.591,16.319 L56.591,16.322 C56.542,16.610 56.517,16.898 56.517,17.184 C56.517,18.545 57.060,19.869 58.034,20.842 C58.395,21.203 58.796,21.499 59.259,21.749 L61.134,22.758 C61.384,22.897 61.618,23.072 61.825,23.279 C62.396,23.851 62.694,24.612 62.694,25.376 C62.694,25.973 62.511,26.579 62.143,27.098 L60.925,28.827 ZM60.620,24.484 C60.519,24.383 60.426,24.313 60.307,24.247 L58.452,23.248 C57.850,22.925 57.308,22.524 56.829,22.046 C55.533,20.750 54.814,18.996 54.814,17.184 C54.814,16.802 54.846,16.418 54.911,16.036 L54.911,16.039 L55.261,13.939 L55.280,13.725 C55.280,13.410 55.155,13.102 54.903,12.849 C54.675,12.622 54.383,12.496 54.058,12.483 L51.946,12.400 C50.217,12.331 48.586,11.616 47.362,10.390 C46.541,9.570 45.936,8.546 45.618,7.430 L45.026,5.409 C44.958,5.185 44.866,5.030 44.708,4.869 C44.461,4.623 44.137,4.494 43.810,4.494 C43.643,4.494 43.476,4.527 43.314,4.597 L43.309,4.599 L41.376,5.428 C40.489,5.812 39.554,6.000 38.630,6.000 C36.726,6.001 34.862,5.200 33.528,3.709 L32.115,2.132 L32.107,2.123 C31.863,1.848 31.551,1.710 31.172,1.707 L31.129,1.708 C30.760,1.723 30.455,1.868 30.217,2.140 L30.215,2.143 L28.831,3.731 L28.834,3.729 C27.503,5.267 25.595,6.096 23.645,6.095 C22.764,6.095 21.872,5.926 21.022,5.577 L21.019,5.577 L19.075,4.773 C18.909,4.708 18.745,4.677 18.583,4.677 C18.393,4.677 18.206,4.720 18.019,4.808 C17.664,4.989 17.457,5.242 17.350,5.611 L16.787,7.649 C16.004,10.487 13.501,12.522 10.543,12.697 L8.440,12.819 C8.055,12.847 7.738,13.014 7.505,13.307 C7.323,13.539 7.232,13.803 7.232,14.081 L7.253,14.314 L7.254,14.316 L7.633,16.393 C7.710,16.810 7.748,17.228 7.748,17.643 C7.748,20.105 6.419,22.421 4.207,23.653 L2.362,24.677 L2.358,24.679 C2.023,24.868 1.823,25.135 1.736,25.511 C1.715,25.603 1.705,25.695 1.705,25.786 C1.706,26.050 1.786,26.302 1.956,26.541 L3.199,28.232 L3.202,28.236 C4.081,29.445 4.524,30.871 4.523,32.294 C4.524,33.684 4.102,35.076 3.259,36.265 L3.260,36.263 L2.041,37.994 L2.038,37.997 C1.878,38.223 1.802,38.477 1.802,38.734 C1.802,39.061 1.927,39.381 2.172,39.626 C2.273,39.726 2.366,39.796 2.485,39.863 L4.330,40.851 C4.932,41.174 5.474,41.574 5.953,42.053 C7.254,43.356 7.963,45.122 7.964,46.933 C7.964,47.307 7.934,47.684 7.871,48.060 L7.520,50.165 L7.501,50.374 C7.502,50.689 7.627,50.997 7.879,51.251 C8.107,51.477 8.399,51.603 8.724,51.617 L10.836,51.698 C12.565,51.768 14.196,52.483 15.421,53.709 C16.240,54.529 16.846,55.553 17.164,56.669 L17.757,58.691 C17.824,58.914 17.916,59.069 18.074,59.230 C18.320,59.476 18.645,59.605 18.972,59.605 C19.139,59.605 19.307,59.572 19.468,59.502 L19.473,59.500 L21.408,58.670 L21.405,58.672 C22.292,58.286 23.227,58.099 24.151,58.099 C26.056,58.098 27.920,58.899 29.254,60.390 L30.668,61.968 L30.675,61.976 C30.919,62.250 31.231,62.389 31.609,62.392 L31.653,62.392 C32.021,62.376 32.327,62.230 32.565,61.959 L32.567,61.956 L33.949,60.371 C35.279,58.832 37.187,58.003 39.137,58.004 C40.018,58.004 40.910,58.173 41.760,58.522 L41.763,58.522 L43.705,59.326 C43.873,59.391 44.038,59.422 44.200,59.422 C44.391,59.422 44.579,59.380 44.766,59.291 C45.100,59.127 45.329,58.853 45.432,58.488 L45.996,56.451 C46.778,53.612 49.281,51.578 52.239,51.402 L54.349,51.280 L54.355,51.279 C54.712,51.259 55.031,51.099 55.292,50.793 C55.470,50.561 55.560,50.302 55.561,50.028 L55.539,49.796 L55.539,49.793 L55.159,47.715 L55.159,47.718 C55.081,47.299 55.044,46.881 55.044,46.467 C55.044,44.004 56.374,41.688 58.585,40.456 L60.430,39.433 L60.434,39.430 C60.770,39.241 60.969,38.975 61.056,38.602 C61.077,38.506 61.087,38.413 61.087,38.323 C61.086,38.060 61.006,37.808 60.837,37.568 L59.593,35.878 L59.591,35.874 C58.710,34.664 58.268,33.238 58.269,31.815 C58.268,30.426 58.690,29.035 59.533,27.846 L60.752,26.116 L60.753,26.113 C60.914,25.886 60.990,25.631 60.990,25.376 C60.990,25.048 60.865,24.728 60.620,24.484 ZM31.396,54.651 C18.909,54.650 8.787,44.532 8.786,32.050 C8.787,19.567 18.909,9.449 31.396,9.448 C43.884,9.449 54.005,19.567 54.006,32.050 C54.005,44.532 43.884,54.650 31.396,54.651 ZM46.179,17.272 C42.393,13.489 37.172,11.151 31.396,11.151 C25.620,11.151 20.399,13.489 16.613,17.272 C12.828,21.057 10.490,26.276 10.490,32.050 C10.490,37.823 12.828,43.043 16.613,46.827 C20.399,50.610 25.620,52.948 31.396,52.948 C37.172,52.948 42.393,50.610 46.179,46.827 C49.964,43.043 52.302,37.823 52.303,32.050 C52.302,26.276 49.964,21.057 46.179,17.272 ZM42.048,30.780 C42.244,31.160 42.451,31.703 42.452,32.360 C42.452,32.727 42.383,33.126 42.214,33.533 L42.216,33.534 L42.210,33.549 L42.209,33.551 L42.209,33.551 C42.151,33.708 41.930,34.254 41.504,34.723 C41.568,34.999 41.615,35.303 41.615,35.637 C41.618,36.523 41.306,37.576 40.350,38.404 C40.311,38.755 40.221,39.273 39.984,39.804 C39.723,40.388 39.272,40.988 38.519,41.298 L38.511,41.301 L38.504,41.304 C38.340,41.360 35.985,42.119 32.280,42.120 L32.279,42.120 C31.906,42.120 31.520,42.112 31.123,42.096 C29.592,42.030 27.823,41.783 26.535,41.605 C26.185,41.556 25.867,41.513 25.594,41.478 L25.397,41.516 L18.810,41.516 C18.491,41.516 18.234,41.267 18.234,40.958 L18.234,27.033 C18.234,26.726 18.491,26.475 18.810,26.475 L25.277,26.475 C26.584,25.995 29.008,25.048 30.217,23.741 C30.914,22.995 31.418,22.408 31.747,21.734 C32.076,21.061 32.246,20.284 32.247,19.113 L32.247,19.011 L32.246,19.007 L32.247,18.999 C32.265,18.564 32.392,17.974 32.733,17.459 C33.068,16.948 33.657,16.524 34.491,16.524 L34.506,16.524 C34.846,16.524 35.206,16.594 35.578,16.726 L35.607,16.736 L35.634,16.753 L35.868,16.900 L35.890,16.922 C36.363,17.387 37.491,18.805 37.488,21.503 C37.488,22.602 37.289,23.922 36.805,25.465 L39.593,25.465 L39.594,25.465 C39.732,25.465 40.248,25.484 40.837,25.791 C41.422,26.094 42.066,26.698 42.436,27.792 L42.437,27.792 L42.446,27.815 L42.447,27.815 L42.446,27.815 C42.516,27.981 42.651,28.362 42.651,28.892 C42.652,29.414 42.502,30.079 42.048,30.780 ZM24.269,28.178 L19.937,28.178 L19.937,39.814 L24.269,39.814 L24.269,28.178 ZM40.902,28.473 L40.902,28.473 L40.898,28.464 L40.894,28.455 L40.861,28.375 L40.858,28.365 C40.647,27.727 40.345,27.438 40.096,27.288 C39.852,27.142 39.643,27.135 39.617,27.135 L39.615,27.135 L35.631,27.135 L35.631,27.135 C35.356,27.135 35.095,27.003 34.938,26.773 C34.840,26.633 34.789,26.467 34.789,26.300 C34.789,26.198 34.808,26.095 34.847,25.996 C35.553,24.187 35.793,22.745 35.793,21.614 C35.789,19.745 35.154,18.727 34.808,18.246 C34.696,18.220 34.586,18.196 34.507,18.196 L34.506,18.196 C34.371,18.198 34.294,18.233 34.222,18.290 C34.151,18.348 34.089,18.438 34.043,18.543 C33.951,18.747 33.929,18.990 33.928,19.039 L33.928,19.146 C33.929,20.498 33.720,21.506 33.297,22.389 C32.874,23.272 32.252,24.017 31.450,24.878 C29.952,26.476 27.399,27.468 25.973,28.001 L25.973,39.842 C26.213,39.873 26.471,39.908 26.768,39.950 C28.032,40.125 29.759,40.364 31.195,40.426 C31.566,40.442 31.926,40.449 32.272,40.449 C33.997,40.449 35.412,40.270 36.396,40.091 C37.343,39.919 37.877,39.751 37.918,39.738 C38.235,39.611 38.451,39.228 38.566,38.819 C38.682,38.415 38.696,38.023 38.696,37.982 C38.697,37.711 38.830,37.459 39.050,37.303 C39.777,36.782 39.933,36.173 39.938,35.655 C39.939,35.173 39.777,34.791 39.771,34.778 C39.723,34.670 39.701,34.557 39.701,34.445 C39.700,34.136 39.874,33.841 40.167,33.697 C40.192,33.691 40.317,33.568 40.411,33.412 C40.509,33.258 40.597,33.073 40.642,32.949 L40.643,32.944 L40.647,32.935 C40.732,32.732 40.764,32.539 40.764,32.356 C40.767,31.759 40.396,31.271 40.382,31.257 L40.383,31.257 C40.264,31.105 40.203,30.922 40.203,30.740 C40.203,30.548 40.269,30.355 40.402,30.200 C40.876,29.643 40.968,29.186 40.970,28.878 C40.971,28.648 40.913,28.499 40.902,28.473 ZM34.847,25.996 L34.847,25.996 L34.847,25.998 L34.847,25.996 ZM45.618,7.430 C45.618,7.430 45.618,7.430 45.618,7.430 L45.620,7.436 L45.618,7.430 ZM41.373,5.429 L41.376,5.428 C41.376,5.427 41.376,5.427 41.376,5.427 L41.373,5.429 ZM17.164,56.669 C17.164,56.669 17.164,56.669 17.164,56.669 L17.160,56.654 L17.164,56.669 ZM33.951,60.368 L33.949,60.371 C33.949,60.371 33.949,60.371 33.948,60.371 L33.951,60.368 ZM59.534,27.845 C59.533,27.845 59.533,27.846 59.533,27.846 L59.532,27.847 L59.534,27.845 ZM61.253,40.924 C61.253,40.924 61.253,40.923 61.253,40.923 L61.257,40.921 L61.253,40.924 ZM57.214,49.488 L57.214,49.486 C57.214,49.486 57.214,49.485 57.214,49.485 L57.214,49.488 ZM33.852,63.075 L33.854,63.072 C33.854,63.072 33.854,63.072 33.854,63.072 L33.852,63.075 ZM20.144,61.065 L20.148,61.063 L20.148,61.063 L20.144,61.065 ZM5.578,14.622 L5.578,14.623 C5.578,14.624 5.578,14.624 5.579,14.624 L5.578,14.622 Z" class="cls-3"/>
  </g>
</svg>
