<svg xmlns="http://www.w3.org/2000/svg" xmlns:xlink="http://www.w3.org/1999/xlink" preserveAspectRatio="xMidYMid" width="49.063" height="64.25" viewBox="0 0 49.063 64.25">
  <defs>
    <style>
      .cls-1 {
        fill: #00a761;
      }

      .cls-1, .cls-2, .cls-3 {
        fill-rule: evenodd;
      }

      .cls-2 {
        fill: #fff;
      }

      .cls-3 {
        fill: #444;
      }
    </style>
  </defs>
  <g>
    <path d="M39.454,63.397 L9.613,63.397 C4.790,63.397 0.843,59.452 0.843,54.630 L0.843,33.812 C0.843,28.990 4.790,25.045 9.613,25.045 L39.454,25.045 C44.277,25.045 48.224,28.990 48.224,33.812 L48.224,54.630 C48.224,59.452 44.277,63.397 39.454,63.397 Z" class="cls-1"/>
    <path d="M9.739,24.920 L15.354,24.920 L15.354,14.850 C15.355,12.328 16.380,10.048 18.053,8.372 C19.730,6.699 22.011,5.674 24.534,5.674 C27.056,5.674 29.337,6.699 31.014,8.372 C32.687,10.048 33.712,12.328 33.713,14.850 L33.713,24.920 L39.391,24.920 L39.391,14.850 C39.391,10.763 37.713,7.037 35.029,4.358 C32.349,1.675 28.621,-0.003 24.534,-0.002 C20.446,-0.003 16.718,1.675 14.038,4.358 C11.354,7.037 9.676,10.763 9.676,14.850 L9.676,24.923 L9.739,24.920 Z" class="cls-2"/>
    <path d="M28.623,44.744 C28.623,42.487 26.792,40.657 24.533,40.657 C22.275,40.657 20.444,42.487 20.444,44.744 C20.444,46.432 21.467,47.879 22.927,48.503 L22.927,52.941 C22.927,53.824 23.650,54.547 24.533,54.547 C25.417,54.547 26.140,53.824 26.140,52.941 L26.140,48.503 C27.600,47.879 28.623,46.432 28.623,44.744 Z" class="cls-2"/>
    <path d="M39.454,64.248 L9.613,64.248 C4.316,64.245 -0.005,59.926 -0.008,54.630 L-0.008,33.812 C-0.005,28.782 3.894,24.641 8.825,24.234 L8.825,16.850 C8.825,12.526 10.600,8.586 13.435,5.757 C16.267,2.921 20.208,1.147 24.534,1.146 C28.858,1.147 32.800,2.921 35.631,5.756 C38.466,8.586 40.242,12.526 40.242,16.850 L40.242,24.234 C45.172,24.641 49.072,28.782 49.075,33.812 L49.075,54.630 C49.072,59.926 44.751,64.245 39.454,64.248 ZM38.539,16.850 C38.539,12.997 36.957,9.487 34.426,6.960 C31.899,4.430 28.387,2.849 24.534,2.849 C20.679,2.849 17.168,4.430 14.640,6.961 C12.109,9.487 10.528,12.997 10.528,16.850 L10.528,24.068 L14.502,24.068 L14.502,16.849 C14.502,14.095 15.627,11.594 17.451,9.769 C19.276,7.947 21.778,6.822 24.534,6.822 C27.289,6.822 29.791,7.947 31.617,9.770 C33.439,11.594 34.564,14.095 34.564,16.850 L34.564,24.068 L38.539,24.068 L38.539,16.850 ZM16.206,16.850 L16.206,24.193 L32.861,24.193 L32.861,16.850 C32.860,14.562 31.934,12.501 30.412,10.974 C28.884,9.452 26.822,8.527 24.534,8.525 C22.245,8.527 20.183,9.452 18.656,10.973 C17.133,12.501 16.207,14.562 16.206,16.850 ZM47.372,33.812 C47.372,31.636 46.483,29.661 45.045,28.222 C43.606,26.785 41.631,25.896 39.454,25.896 L9.613,25.896 C7.436,25.896 5.461,26.785 4.022,28.222 C2.584,29.661 1.695,31.636 1.695,33.812 L1.695,54.630 C1.695,56.806 2.584,58.781 4.022,60.220 C5.461,61.657 7.436,62.545 9.613,62.545 L39.454,62.545 C41.631,62.545 43.606,61.657 45.045,60.220 C46.483,58.781 47.372,56.806 47.372,54.630 L47.372,33.812 ZM26.992,49.019 L26.992,52.941 C26.988,54.298 25.891,55.395 24.533,55.398 C23.176,55.395 22.078,54.298 22.075,52.941 L22.075,49.019 C20.594,48.167 19.593,46.576 19.592,44.744 C19.593,42.016 21.804,39.806 24.533,39.805 C27.263,39.806 29.474,42.016 29.475,44.744 C29.474,46.576 28.473,48.167 26.992,49.019 ZM24.533,41.508 C22.746,41.511 21.299,42.957 21.296,44.744 C21.295,46.080 22.106,47.225 23.262,47.720 L23.778,47.941 L23.778,52.941 C23.779,53.148 23.861,53.332 24.001,53.473 C24.142,53.612 24.326,53.695 24.533,53.695 C24.740,53.695 24.925,53.612 25.066,53.473 C25.205,53.332 25.288,53.148 25.288,52.941 L25.288,47.941 L25.805,47.720 C26.961,47.225 27.772,46.080 27.771,44.744 C27.768,42.957 26.321,41.511 24.533,41.508 Z" class="cls-3"/>
  </g>
</svg>
