<svg xmlns="http://www.w3.org/2000/svg" xmlns:xlink="http://www.w3.org/1999/xlink" preserveAspectRatio="xMidYMid" width="49.063" height="63.09" viewBox="0 0 49.063 63.09">
  <defs>
    <style>
      .cls-1 {
        fill: #00abd0;
      }

      .cls-1, .cls-2, .cls-3 {
        fill-rule: evenodd;
      }

      .cls-2 {
        fill: #fff;
      }

      .cls-3 {
        fill: #555;
      }
    </style>
  </defs>
  <g>
    <path d="M39.454,62.237 L9.613,62.237 C4.790,62.237 0.843,58.292 0.843,53.470 L0.843,32.652 C0.843,27.830 4.790,23.885 9.613,23.885 L39.454,23.885 C44.277,23.885 48.224,27.830 48.224,32.652 L48.224,53.470 C48.224,58.292 44.277,62.237 39.454,62.237 Z" class="cls-1"/>
    <path d="M28.623,43.584 C28.623,41.327 26.792,39.497 24.533,39.497 C22.275,39.497 20.444,41.327 20.444,43.584 C20.444,45.272 21.467,46.719 22.927,47.343 L22.927,51.781 C22.927,52.664 23.650,53.387 24.533,53.387 C25.417,53.387 26.140,52.664 26.140,51.781 L26.140,47.343 C27.600,46.719 28.623,45.272 28.623,43.584 Z" class="cls-2"/>
    <path d="M39.454,63.088 L9.613,63.088 C4.316,63.085 -0.005,58.766 -0.008,53.470 L-0.008,32.652 C-0.005,27.622 3.894,23.481 8.825,23.074 L8.825,15.690 C8.825,11.366 10.600,7.426 13.435,4.597 C16.267,1.761 20.208,-0.013 24.534,-0.014 C28.858,-0.013 32.800,1.761 35.631,4.596 C38.466,7.426 40.242,11.366 40.242,15.690 L40.242,23.074 C45.172,23.481 49.072,27.622 49.075,32.652 L49.075,53.470 C49.072,58.766 44.751,63.085 39.454,63.088 ZM38.539,15.690 C38.539,11.837 36.957,8.327 34.426,5.800 C31.899,3.270 28.387,1.689 24.534,1.689 C20.679,1.689 17.168,3.270 14.640,5.801 C12.109,8.327 10.528,11.837 10.528,15.690 L10.528,22.908 L14.503,22.908 L14.503,15.689 C14.503,12.935 15.627,10.434 17.451,8.608 C19.276,6.787 21.778,5.662 24.534,5.662 C27.289,5.662 29.791,6.787 31.617,8.610 C33.439,10.434 34.564,12.935 34.564,15.690 L34.564,22.908 L38.539,22.908 L38.539,15.690 ZM16.206,15.690 L16.206,23.034 L32.861,23.034 L32.861,15.690 C32.860,13.402 31.934,11.341 30.412,9.814 C28.884,8.292 26.822,7.366 24.534,7.365 C22.245,7.366 20.183,8.292 18.656,9.813 C17.133,11.341 16.207,13.402 16.206,15.690 ZM47.372,32.652 C47.372,30.476 46.483,28.501 45.045,27.062 C43.606,25.625 41.631,24.736 39.454,24.736 L9.613,24.736 C7.436,24.736 5.461,25.625 4.022,27.062 C2.584,28.501 1.695,30.476 1.695,32.652 L1.695,53.470 C1.695,55.646 2.584,57.621 4.022,59.060 C5.461,60.497 7.436,61.385 9.613,61.386 L39.454,61.386 C41.631,61.385 43.606,60.497 45.045,59.060 C46.483,57.621 47.372,55.646 47.372,53.470 L47.372,32.652 ZM26.992,47.859 L26.992,51.781 C26.988,53.138 25.891,54.235 24.533,54.238 C23.175,54.235 22.078,53.138 22.075,51.781 L22.075,47.859 C20.594,47.007 19.593,45.416 19.592,43.584 C19.593,40.856 21.804,38.646 24.533,38.645 C27.263,38.646 29.474,40.856 29.475,43.584 C29.474,45.416 28.473,47.007 26.992,47.859 ZM24.533,40.348 C22.746,40.351 21.299,41.797 21.296,43.584 C21.295,44.920 22.106,46.065 23.262,46.561 L23.778,46.781 L23.778,51.781 C23.779,51.987 23.861,52.172 24.001,52.313 C24.142,52.452 24.326,52.535 24.533,52.535 C24.740,52.535 24.925,52.452 25.066,52.313 C25.206,52.172 25.288,51.987 25.288,51.781 L25.288,46.781 L25.805,46.561 C26.961,46.065 27.772,44.920 27.771,43.584 C27.768,41.797 26.321,40.351 24.533,40.348 Z" class="cls-3"/>
  </g>
</svg>
