<svg xmlns="http://www.w3.org/2000/svg" xmlns:xlink="http://www.w3.org/1999/xlink" preserveAspectRatio="xMidYMid" width="59.125" height="61.5" viewBox="0 0 59.125 61.5">
  <defs>
    <style>
      .cls-1 {
        fill: #fdc753;
      }

      .cls-1, .cls-2, .cls-3, .cls-4 {
        fill-rule: evenodd;
      }

      .cls-2 {
        fill: #00abd0;
      }

      .cls-3 {
        fill: #555;
      }

      .cls-4 {
        fill: #fff;
      }
    </style>
  </defs>
  <g>
    <path d="M9.554,16.258 L9.554,8.983 C9.554,8.983 11.769,0.803 21.556,0.803 C31.344,0.803 33.558,8.983 33.558,8.983 L33.558,15.007 L18.951,10.710 L9.554,16.258 Z" class="cls-1"/>
    <path d="M42.287,49.339 L42.287,52.066 L0.825,52.066 L0.825,49.339 C0.825,49.339 0.923,43.372 11.191,40.068 C11.191,40.068 14.912,38.127 16.101,36.796 L21.556,41.704 L27.012,36.796 C28.201,38.127 31.922,40.068 31.922,40.068 C42.255,43.340 42.287,49.339 42.287,49.339 L42.287,49.339 Z" class="cls-2"/>
    <path d="M0.007,52.884 L0.007,49.325 C0.011,49.058 0.236,42.761 10.873,39.311 C11.846,38.799 14.248,37.439 15.282,36.463 L15.282,33.812 C11.968,31.919 9.701,28.519 8.976,24.356 C7.097,23.819 5.462,22.057 5.462,20.435 C5.462,18.794 6.696,17.706 8.736,17.480 L8.736,8.874 L8.764,8.770 C8.789,8.678 9.388,6.518 11.267,4.357 C13.000,2.362 16.192,-0.015 21.556,-0.015 C26.920,-0.015 30.112,2.362 31.845,4.357 C33.724,6.518 34.323,8.678 34.349,8.770 L34.377,8.874 L34.377,17.480 C36.416,17.706 37.650,18.794 37.650,20.435 C37.650,22.057 36.015,23.819 34.137,24.356 C33.412,28.518 31.146,31.917 27.830,33.812 L27.830,36.463 C28.864,37.438 31.264,38.797 32.238,39.310 C42.947,42.728 43.104,49.065 43.105,49.335 L43.105,52.884 L0.007,52.884 ZM8.736,19.125 C7.277,19.329 7.099,20.083 7.099,20.435 C7.099,21.104 7.822,22.013 8.765,22.516 C8.747,22.192 8.736,19.125 8.736,19.125 ZM30.564,5.377 C28.370,2.885 25.340,1.621 21.556,1.621 C17.745,1.621 14.699,2.902 12.503,5.429 C11.077,7.070 10.500,8.700 10.372,9.103 C10.372,9.103 10.379,11.524 10.386,14.203 C10.519,14.173 10.655,14.143 10.818,14.100 C11.643,13.884 12.833,13.482 14.254,12.745 C16.983,11.329 18.290,9.711 18.326,9.666 L18.326,9.666 L18.819,9.036 L19.479,9.489 L19.493,9.499 L19.559,9.542 C19.620,9.581 19.716,9.642 19.847,9.719 C20.110,9.875 20.514,10.102 21.063,10.379 C22.163,10.932 23.846,11.682 26.154,12.446 C28.919,13.362 31.302,13.634 32.742,13.709 C32.741,11.196 32.740,9.104 32.740,9.104 C32.610,8.697 32.012,7.022 30.564,5.377 ZM36.013,20.435 C36.013,20.083 35.835,19.329 34.377,19.125 C34.377,19.125 34.366,22.192 34.348,22.516 C35.290,22.013 36.013,21.104 36.013,20.435 ZM32.606,23.563 C32.617,23.479 32.743,22.474 32.743,21.264 C32.743,19.985 32.743,17.677 32.742,15.413 C31.194,15.339 28.625,15.057 25.619,14.062 C22.225,12.939 20.121,11.844 19.152,11.283 C18.482,11.967 17.146,13.161 15.040,14.256 C12.924,15.354 11.266,15.776 10.390,15.940 C10.394,17.694 10.397,19.365 10.397,20.346 C10.397,23.037 10.495,23.478 10.506,23.561 C11.069,27.636 13.246,30.930 16.477,32.601 C18.002,33.394 19.710,33.796 21.556,33.796 C23.402,33.796 25.110,33.394 26.634,32.602 C29.867,30.930 32.043,27.636 32.606,23.563 ZM16.919,34.593 L16.919,36.432 L21.556,40.603 L26.193,36.432 L26.193,34.593 C24.756,35.150 23.201,35.432 21.556,35.432 C19.911,35.432 18.357,35.150 16.919,34.593 ZM41.469,49.347 C41.466,49.278 41.398,47.947 40.228,46.283 C38.191,43.384 34.452,41.728 31.675,40.848 C31.675,40.848 28.516,39.197 26.997,37.909 L22.375,42.068 L22.375,47.157 L20.738,47.157 L20.738,42.068 L16.115,37.909 C14.596,39.197 11.442,40.846 11.442,40.846 C8.681,41.735 4.959,43.402 2.907,46.298 C1.742,47.943 1.649,49.258 1.644,49.354 L1.644,51.247 L41.469,51.247 L41.469,49.347 Z" class="cls-3"/>
    <path d="M55.090,49.296 C55.090,55.563 50.008,60.642 43.739,60.642 C37.471,60.642 32.389,55.563 32.389,49.296 C32.389,43.030 37.471,37.950 43.739,37.950 C50.008,37.950 55.090,43.030 55.090,49.296 Z" class="cls-4"/>
    <path d="M58.853,38.228 L54.080,42.842 C55.252,44.715 55.941,46.923 55.942,49.296 C55.941,56.033 50.479,61.493 43.739,61.494 C37.000,61.493 31.538,56.033 31.537,49.296 C31.538,42.559 37.000,37.099 43.739,37.099 C47.486,37.099 50.834,38.790 53.073,41.447 L57.669,37.004 C58.007,36.677 58.547,36.686 58.874,37.025 C59.201,37.362 59.191,37.901 58.853,38.228 ZM51.163,41.875 C49.260,39.974 46.641,38.801 43.739,38.801 C40.837,38.801 38.218,39.974 36.316,41.875 C34.414,43.777 33.241,46.396 33.241,49.296 C33.241,52.197 34.414,54.815 36.316,56.717 C38.218,58.618 40.837,59.791 43.739,59.791 C46.641,59.791 49.260,58.618 51.163,56.717 C53.064,54.815 54.238,52.197 54.238,49.296 C54.238,47.383 53.719,45.597 52.826,44.054 L43.747,52.828 C43.424,53.141 42.912,53.148 42.580,52.844 L36.738,47.505 L36.738,47.505 C36.391,47.188 36.367,46.649 36.684,46.303 C37.002,45.955 37.540,45.931 37.888,46.248 L43.139,51.048 L51.848,42.630 C51.632,42.368 51.404,42.115 51.163,41.875 Z" class="cls-3"/>
  </g>
</svg>
