<svg xmlns="http://www.w3.org/2000/svg" xmlns:xlink="http://www.w3.org/1999/xlink" preserveAspectRatio="xMidYMid" width="150" height="95.22" viewBox="0 0 150 95.22">
  <defs>
    <style>
      .cls-1 {
        fill: #cbcccd;
      }

      .cls-1, .cls-2, .cls-3, .cls-4 {
        fill-rule: evenodd;
      }

      .cls-2 {
        fill: #cfe9f8;
      }

      .cls-3 {
        fill: #444;
      }

      .cls-4 {
        fill: #fff;
      }
    </style>
  </defs>
  <g>
    <path d="M148.865,72.756 L146.665,72.756 L146.665,74.958 C146.665,75.585 146.157,76.094 145.530,76.094 C144.904,76.094 144.396,75.585 144.396,74.958 L144.396,72.756 L142.196,72.756 C141.569,72.756 141.061,72.248 141.061,71.621 C141.061,70.994 141.569,70.486 142.196,70.486 L144.396,70.486 L144.396,68.283 C144.396,67.656 144.904,67.148 145.530,67.148 C146.157,67.148 146.665,67.656 146.665,68.283 L146.665,70.486 L148.865,70.486 C149.492,70.486 149.999,70.994 149.999,71.621 C149.999,72.248 149.492,72.756 148.865,72.756 ZM118.026,15.349 L115.826,15.349 L115.826,17.551 C115.826,18.178 115.318,18.686 114.692,18.686 C114.065,18.686 113.557,18.178 113.557,17.551 L113.557,15.349 L111.357,15.349 C110.730,15.349 110.222,14.841 110.222,14.214 C110.222,13.587 110.730,13.079 111.357,13.079 L113.557,13.079 L113.557,10.876 C113.557,10.249 114.065,9.741 114.692,9.741 C115.318,9.741 115.826,10.249 115.826,10.876 L115.826,13.079 L118.026,13.079 C118.653,13.079 119.161,13.587 119.161,14.214 C119.161,14.841 118.653,15.349 118.026,15.349 ZM111.557,85.876 C111.557,85.249 112.065,84.741 112.692,84.741 C113.318,84.741 113.826,85.249 113.826,85.876 L113.826,88.079 L116.026,88.079 C116.653,88.079 117.161,88.587 117.161,89.214 C117.161,89.841 116.653,90.349 116.026,90.349 L113.826,90.349 L113.826,92.551 C113.826,93.178 113.318,93.686 112.692,93.686 C112.065,93.686 111.557,93.178 111.557,92.551 L111.557,90.349 L109.357,90.349 C108.730,90.349 108.222,89.841 108.222,89.214 C108.222,88.587 108.730,88.079 109.357,88.079 L111.557,88.079 L111.557,85.876 ZM7.804,66.048 L5.604,66.048 L5.604,68.250 C5.604,68.877 5.096,69.385 4.469,69.385 C3.843,69.385 3.335,68.877 3.335,68.250 L3.335,66.048 L1.135,66.048 C0.508,66.048 0.000,65.540 0.000,64.913 C0.000,64.286 0.508,63.778 1.135,63.778 L3.335,63.778 L3.335,61.575 C3.335,60.948 3.843,60.440 4.469,60.440 C5.096,60.440 5.604,60.948 5.604,61.575 L5.604,63.778 L7.804,63.778 C8.431,63.778 8.939,64.286 8.939,64.913 C8.939,65.540 8.431,66.048 7.804,66.048 Z" class="cls-1"/>
    <path d="M93.860,69.959 L50.656,69.959 L50.656,11.025 L93.860,11.025 L93.860,69.959 Z" class="cls-2"/>
    <path d="M113.280,60.133 C113.244,60.602 112.834,60.952 112.366,60.916 C111.897,60.879 111.547,60.470 111.584,60.001 C111.635,59.335 111.659,58.697 111.659,58.088 C111.656,53.562 110.338,50.561 109.027,48.658 C107.714,46.757 106.389,45.960 106.377,45.954 L106.378,45.953 C105.975,45.715 105.838,45.196 106.075,44.791 C106.311,44.385 106.832,44.248 107.238,44.485 C107.313,44.530 108.838,45.433 110.355,47.587 C111.873,49.738 113.364,53.148 113.361,58.088 C113.361,58.742 113.335,59.424 113.280,60.133 ZM89.759,80.989 L56.638,80.989 C56.635,81.008 56.633,81.021 56.631,81.040 C56.573,81.522 56.515,82.220 56.515,83.062 C56.515,84.476 56.680,86.293 57.279,88.179 C57.879,90.066 58.904,92.020 60.637,93.755 C60.969,94.087 60.969,94.626 60.637,94.959 C60.304,95.291 59.766,95.291 59.434,94.959 C57.482,93.007 56.322,90.793 55.657,88.694 C54.992,86.594 54.814,84.607 54.814,83.062 C54.814,82.220 54.867,81.517 54.925,80.989 L54.757,80.989 C52.022,80.988 49.806,78.771 49.805,76.033 L49.805,73.789 L46.245,73.789 C42.649,73.786 39.721,70.855 39.718,67.256 C39.720,65.169 40.710,63.311 42.240,62.114 C39.622,61.271 37.719,58.813 37.717,55.918 C37.719,53.183 39.420,50.839 41.817,49.879 C40.304,48.748 39.317,46.949 39.315,44.920 C39.318,41.508 42.094,38.730 45.503,38.726 L49.805,38.726 L49.805,11.025 L49.805,4.951 C49.806,2.213 52.022,-0.005 54.757,-0.005 L89.759,-0.005 C92.494,-0.005 94.710,2.213 94.711,4.951 L94.711,11.025 L94.711,69.959 L94.711,76.033 C94.710,78.771 92.494,80.988 89.759,80.989 ZM49.805,40.429 L45.503,40.429 C44.270,40.430 43.152,40.932 42.335,41.749 C41.519,42.567 41.017,43.685 41.016,44.920 C41.017,46.154 41.519,47.272 42.335,48.090 C43.152,48.907 44.270,49.410 45.503,49.410 L49.805,49.410 L49.805,40.429 ZM49.805,51.113 L45.503,51.113 L44.220,51.113 C42.900,51.113 41.704,51.651 40.830,52.525 C39.957,53.400 39.419,54.597 39.418,55.918 C39.419,57.239 39.957,58.437 40.830,59.311 C41.704,60.185 42.900,60.724 44.220,60.724 L46.245,60.724 L49.805,60.724 L49.805,51.113 ZM49.805,69.959 L49.805,62.427 L46.245,62.427 C44.919,62.427 43.716,62.968 42.838,63.846 C41.960,64.725 41.420,65.929 41.419,67.256 C41.420,68.584 41.960,69.787 42.838,70.667 C43.716,71.545 44.919,72.086 46.245,72.086 L49.805,72.086 L49.805,69.959 ZM93.010,4.951 C93.006,3.155 91.554,1.701 89.759,1.698 L54.757,1.698 C52.962,1.701 51.510,3.155 51.507,4.951 L51.507,10.174 L93.010,10.174 L93.010,4.951 ZM93.010,11.877 L51.507,11.877 L51.507,38.726 L51.507,38.726 L51.507,49.410 L51.507,51.113 L51.507,60.724 L51.507,62.427 L51.507,69.107 L93.010,69.107 L93.010,11.877 ZM93.010,70.810 L51.507,70.810 L51.507,73.789 L51.507,73.789 L51.507,76.033 C51.510,77.829 52.962,79.283 54.757,79.286 L89.759,79.286 C91.554,79.283 93.006,77.829 93.010,76.033 L93.010,70.810 Z" class="cls-3"/>
    <path d="M82.920,82.718 C82.920,82.718 77.793,79.589 79.419,72.205 C81.044,64.821 88.173,63.820 89.298,61.066 C90.423,58.313 89.025,56.730 85.796,55.059 C82.170,53.182 77.668,49.177 80.794,45.547 C83.921,41.918 93.662,45.064 98.927,48.801 C103.804,52.264 105.180,55.076 104.429,63.578 C103.679,72.080 101.553,83.969 90.423,93.481 " class="cls-4"/>
    <path d="M83.363,81.991 L83.331,82.043 L83.364,81.991 L83.363,81.991 L83.331,82.043 L83.364,81.991 C83.313,81.960 82.443,81.396 81.606,80.254 C80.768,79.109 79.953,77.410 79.951,75.000 C79.951,74.210 80.039,73.341 80.249,72.388 C80.630,70.666 81.317,69.347 82.161,68.260 C83.426,66.631 85.068,65.533 86.567,64.569 C87.315,64.086 88.026,63.639 88.639,63.148 C89.248,62.657 89.784,62.115 90.085,61.389 C90.376,60.678 90.533,59.997 90.533,59.335 C90.541,58.222 90.056,57.222 89.285,56.431 C88.513,55.630 87.469,54.968 86.187,54.303 C84.871,53.623 83.419,52.632 82.340,51.521 C81.800,50.967 81.353,50.384 81.052,49.810 C80.750,49.235 80.594,48.678 80.594,48.146 C80.599,47.489 80.813,46.837 81.438,46.104 C81.812,45.671 82.317,45.348 82.973,45.125 C83.627,44.904 84.426,44.792 85.322,44.792 C87.295,44.790 89.716,45.335 92.065,46.206 C94.415,47.074 96.700,48.263 98.435,49.496 C100.422,50.907 101.726,52.147 102.550,53.654 C103.374,55.161 103.769,57.012 103.770,59.756 C103.770,60.857 103.706,62.097 103.582,63.503 C103.210,67.718 102.499,72.730 100.525,77.844 C98.549,82.958 95.321,88.173 89.871,92.833 C89.513,93.139 89.471,93.676 89.776,94.034 C90.081,94.391 90.618,94.434 90.976,94.128 C96.655,89.276 100.055,83.792 102.112,78.458 C104.171,73.123 104.898,67.939 105.277,63.653 C105.404,62.211 105.471,60.924 105.471,59.756 C105.473,56.861 105.050,54.675 104.043,52.836 C103.035,50.996 101.492,49.579 99.419,48.107 C97.534,46.769 95.140,45.528 92.655,44.608 C90.167,43.691 87.597,43.092 85.322,43.089 C84.288,43.090 83.312,43.214 82.428,43.512 C81.547,43.809 80.753,44.290 80.150,44.991 C79.299,45.970 78.888,47.072 78.893,48.146 C78.893,49.015 79.147,49.843 79.547,50.603 C80.149,51.744 81.076,52.753 82.115,53.631 C83.156,54.508 84.314,55.250 85.406,55.815 C86.608,56.435 87.508,57.034 88.058,57.610 C88.608,58.197 88.823,58.692 88.831,59.335 C88.832,59.723 88.739,60.186 88.511,60.744 C88.357,61.152 87.838,61.668 87.020,62.232 C85.806,63.087 84.034,64.047 82.392,65.530 C80.748,67.011 79.234,69.062 78.588,72.022 C78.352,73.089 78.249,74.082 78.249,75.000 C78.246,77.899 79.288,80.026 80.333,81.394 C81.378,82.767 82.416,83.406 82.477,83.444 C82.878,83.689 83.402,83.562 83.646,83.161 C83.891,82.759 83.764,82.236 83.363,81.991 L83.363,81.991 Z" class="cls-3"/>
  </g>
</svg>
