<svg xmlns="http://www.w3.org/2000/svg" xmlns:xlink="http://www.w3.org/1999/xlink" preserveAspectRatio="xMidYMid" width="52.531" height="64.53" viewBox="0 0 52.531 64.53">
  <defs>
    <style>
      .cls-1 {
        fill: #fdc753;
      }

      .cls-1, .cls-2, .cls-3 {
        fill-rule: evenodd;
      }

      .cls-2 {
        fill: #fff;
      }

      .cls-3 {
        fill: #555;
      }
    </style>
  </defs>
  <g>
    <path d="M37.042,7.991 C29.030,4.612 26.276,0.858 26.276,0.858 C26.276,0.858 23.522,4.612 15.510,7.991 C7.497,11.370 0.862,10.744 0.862,10.744 C0.862,10.744 0.862,30.016 0.862,35.773 C0.862,41.529 2.991,47.412 11.128,53.543 C19.265,59.676 26.276,63.680 26.276,63.680 C26.276,63.680 33.287,59.676 41.424,53.543 C49.561,47.412 51.689,41.529 51.689,35.773 C51.689,30.016 51.689,10.744 51.689,10.744 C51.689,10.744 45.054,11.370 37.042,7.991 Z" class="cls-1"/>
    <path d="M37.181,19.864 L21.336,35.704 L17.041,31.410 L14.031,34.419 L21.336,41.721 L40.191,22.873 L37.181,19.864 Z" class="cls-2"/>
    <path d="M50.363,44.912 C48.743,48.003 46.080,51.101 41.936,54.223 C33.754,60.389 26.719,64.408 26.698,64.419 C26.437,64.569 26.115,64.569 25.853,64.419 C25.833,64.408 18.798,60.389 10.615,54.223 C6.472,51.101 3.809,48.003 2.189,44.912 C0.568,41.823 0.009,38.754 0.011,35.773 C0.011,31.455 0.011,19.536 0.011,13.846 C0.011,11.949 0.011,10.748 0.011,10.744 C0.011,10.504 0.111,10.276 0.289,10.115 C0.467,9.953 0.703,9.874 0.942,9.897 L1.013,9.902 C1.066,9.906 1.147,9.911 1.255,9.917 C1.471,9.927 1.795,9.938 2.212,9.938 C4.469,9.939 9.472,9.615 15.178,7.207 C22.800,3.991 25.498,0.472 25.589,0.355 L25.589,0.355 C25.749,0.136 26.006,0.006 26.276,0.006 C26.546,0.006 26.803,0.136 26.963,0.355 L26.963,0.355 L26.980,0.377 L27.065,0.481 C27.144,0.577 27.271,0.723 27.450,0.912 C27.808,1.290 28.374,1.839 29.189,2.494 C30.818,3.806 33.439,5.548 37.373,7.207 C43.080,9.614 48.082,9.940 50.339,9.939 C51.070,9.939 51.513,9.905 51.596,9.898 L51.610,9.897 C51.849,9.874 52.085,9.953 52.263,10.115 C52.440,10.276 52.541,10.504 52.541,10.744 C52.541,10.744 52.541,30.016 52.541,35.773 C52.543,38.754 51.984,41.823 50.363,44.912 ZM36.711,8.776 C30.685,6.236 27.542,3.468 26.276,2.147 C25.010,3.468 21.866,6.236 15.841,8.776 C9.854,11.299 4.629,11.640 2.212,11.641 C2.026,11.641 1.866,11.638 1.714,11.635 C1.714,15.482 1.714,30.757 1.714,35.773 C1.716,38.548 2.221,41.299 3.698,44.122 C5.177,46.944 7.647,49.853 11.641,52.863 C18.567,58.083 24.670,61.751 26.276,62.695 C26.475,62.578 26.728,62.428 27.060,62.229 C27.838,61.761 28.962,61.073 30.340,60.194 C33.095,58.435 36.865,55.912 40.911,52.863 C44.905,49.853 47.375,46.944 48.854,44.122 C50.331,41.299 50.836,38.548 50.838,35.773 C50.838,31.455 50.838,19.536 50.838,13.846 C50.838,12.924 50.838,12.171 50.838,11.635 C50.685,11.638 50.526,11.641 50.339,11.641 C47.922,11.640 42.698,11.299 36.711,8.776 ZM12.827,34.419 L17.041,30.206 L21.336,34.499 L36.579,19.262 L37.181,18.660 L41.396,22.872 L21.336,42.925 L12.827,34.419 ZM37.181,21.068 L21.336,36.907 L17.041,32.614 L15.236,34.419 L21.336,40.517 L38.986,22.872 L37.181,21.068 Z" class="cls-3"/>
  </g>
</svg>
