<svg id="airplan" xmlns="http://www.w3.org/2000/svg" width="150" height="99.94" viewBox="0 0 150 99.94"><defs><style>.cls-1{fill:#cbcccd}.cls-1,.cls-2,.cls-3,.cls-4{fill-rule:evenodd}.cls-2{fill:#cfe9f8}.cls-3{fill:#444}.cls-4{fill:#6fa4cd}</style></defs><path class="cls-1" d="M890.026 4310.23h-2.2v-2.2a1.135 1.135 0 0 0-2.269 0v2.2h-2.2a1.13 1.13 0 1 0 0 2.26h2.2v2.2a1.135 1.135 0 0 0 2.269 0v-2.2h2.2a1.13 1.13 0 1 0 0-2.26zm12.839 60.25h-2.2v-2.2a1.135 1.135 0 0 0-2.269 0v2.2h-2.2a1.135 1.135 0 1 0 0 2.27h2.2v2.19a1.135 1.135 0 0 0 2.269 0v-2.19h2.2a1.135 1.135 0 1 0 0-2.27zm-141.065-6.69h-2.2v-2.2a1.135 1.135 0 0 0-2.269 0v2.2h-2.2a1.13 1.13 0 1 0 0 2.26h2.2v2.2a1.135 1.135 0 0 0 2.269 0v-2.2h2.2a1.13 1.13 0 1 0 0-2.26z" transform="translate(-754 -4297.06)"/><path id="Shape_4_copy_4" data-name="Shape 4 copy 4" class="cls-2" d="M821.776 4333.04h68.78l-56.649 10.92z" transform="translate(-754 -4297.06)"/><path id="Shape_4_copy_3" data-name="Shape 4 copy 3" class="cls-2" d="M821.776 4333.04h68.78l-56.649-10.92z" transform="translate(-754 -4297.06)"/><path id="Shape_4_copy_2" data-name="Shape 4 copy 2" class="cls-3" d="M891.405 4333.04v-.05-.03a.369.369 0 0 0-.021-.07.719.719 0 0 0-.021-.11v-.03c-.006-.02-.018-.03-.026-.05a.522.522 0 0 0-.055-.1c-.019-.03-.034-.06-.056-.09 0-.01-.007-.01-.012-.02a.18.18 0 0 1-.046-.04.41.41 0 0 0-.088-.07.427.427 0 0 0-.08-.07c-.006 0-.011-.01-.017-.01h-.008l-64.278-35.14a.851.851 0 0 0-1.22 1l7.464 23.69-11.724 10.56c-.019.02-.031.04-.048.06s-.053.06-.076.09a1.215 1.215 0 0 0-.068.12c-.01.02-.025.04-.033.06a.275.275 0 0 0-.011.05.657.657 0 0 0-.029.13.971.971 0 0 0-.01.12.811.811 0 0 0 .011.12.594.594 0 0 0 .028.13.21.21 0 0 0 .044.11 1.215 1.215 0 0 0 .068.12c.023.03.049.06.076.09s.029.04.048.06l11.724 10.56-7.464 23.69a.847.847 0 0 0 1.22 1l64.278-35.13c0-.01 0-.01.008-.01s.011-.01.017-.01c.029-.02.053-.04.08-.06s.061-.05.089-.08a.162.162 0 0 0 .045-.04c0-.01.007-.01.012-.02.022-.03.037-.06.056-.09a.522.522 0 0 0 .055-.1.165.165 0 0 0 .026-.05v-.03a.719.719 0 0 0 .021-.11.369.369 0 0 0 .021-.07v-.03-.05zm-57.244 10.01l-10.171-9.16h57.673l-33.475 6.45zm12.99-19.24l-12.585-2.43-6.842-21.72 57.652 31.52zm-12.99-.78l47.5 9.16H823.99zm.405 21.67l50.81-9.8-57.652 31.52z" transform="translate(-754 -4297.06)"/><path id="Shape_4_copy" data-name="Shape 4 copy" class="cls-4" d="M847.211 4377.79a28.016 28.016 0 0 1-1.305 3.27 1.649 1.649 0 0 1-1.487.94 1.6 1.6 0 0 1-.7-.16 1.635 1.635 0 0 1-.782-2.18 25.015 25.015 0 0 0 1.151-2.89 1.644 1.644 0 0 1 3.123 1.02zm-7.519 11.75a1.638 1.638 0 1 1-2.242-2.39 26.375 26.375 0 0 0 2.14-2.26 1.642 1.642 0 1 1 2.525 2.1 28.191 28.191 0 0 1-2.423 2.55zm-5.734 4.07a27.029 27.029 0 0 1-3.19 1.48 1.587 1.587 0 0 1-.6.12 1.642 1.642 0 0 1-.6-3.17 26.237 26.237 0 0 0 2.814-1.31 1.641 1.641 0 1 1 1.576 2.88zm-10.01 3.19a28.49 28.49 0 0 1-3.334.19 1.64 1.64 0 1 1 0-3.28 26.273 26.273 0 0 0 2.946-.17 1.642 1.642 0 1 1 .388 3.26zm-7.876-61.16c-1.013.26-2.025.58-3.009.94a1.624 1.624 0 0 1-.57.1 1.641 1.641 0 0 1-.57-3.18 35.33 35.33 0 0 1 3.329-1.04 1.642 1.642 0 1 1 .82 3.18zm-1.838 57.4a1.638 1.638 0 1 1-.747 3.19 30.525 30.525 0 0 1-3.366-.98 1.64 1.64 0 1 1 1.1-3.09 28.778 28.778 0 0 0 3.013.88zm-6.826-53.69a30.732 30.732 0 0 0-2.59 1.79 1.632 1.632 0 0 1-2.306-.29 1.637 1.637 0 0 1 .3-2.3 34.015 34.015 0 0 1 2.863-1.99 1.643 1.643 0 0 1 1.733 2.79zm-1.807 50.06a1.639 1.639 0 0 1-.886 3.02 1.594 1.594 0 0 1-.882-.26 30.321 30.321 0 0 1-2.845-2.04 1.641 1.641 0 1 1 2.065-2.55 28.813 28.813 0 0 0 2.547 1.83zm-7.3-41.46a1.63 1.63 0 0 1-1.347.7 1.578 1.578 0 0 1-.942-.3 1.632 1.632 0 0 1-.4-2.28 32.949 32.949 0 0 1 2.144-2.74 1.64 1.64 0 0 1 2.487 2.14c-.689.79-1.343 1.63-1.943 2.48zm-3.08 5.49a31.03 31.03 0 0 0-1.108 2.95 1.638 1.638 0 0 1-1.566 1.14 1.716 1.716 0 0 1-.5-.07 1.643 1.643 0 0 1-1.068-2.06 34 34 0 0 1 1.225-3.27 1.644 1.644 0 0 1 3.015 1.31zm-2.4 9.11a31.597 31.597 0 0 0-.172 3.14 1.644 1.644 0 1 1-3.287-.01c.007-1.16.07-2.33.191-3.47a1.643 1.643 0 0 1 3.268.34zm-1.471 8.12a1.639 1.639 0 0 1 1.959 1.24 27.5 27.5 0 0 0 .85 3.01 1.644 1.644 0 1 1-3.108 1.07 30.734 30.734 0 0 1-.951-3.37 1.633 1.633 0 0 1 1.25-1.95zm3.233 9.37a1.643 1.643 0 0 1 2.263.53 29.133 29.133 0 0 0 1.8 2.56 1.646 1.646 0 0 1-.272 2.31 1.677 1.677 0 0 1-1.016.35 1.65 1.65 0 0 1-1.292-.63 30.744 30.744 0 0 1-2.013-2.86 1.64 1.64 0 0 1 .53-2.26z" transform="translate(-754 -4297.06)"/></svg>