<svg xmlns="http://www.w3.org/2000/svg" preserveAspectRatio="xMidYMid" width="98.532" height="126.282" viewBox="0 0 98.532 126.282"><defs><style>.cls-1{fill:#00abd0}.cls-1,.cls-2,.cls-3{fill-rule:evenodd}.cls-2{fill:#444}.cls-3{fill:#fdc753}</style></defs><path d="M97.535 32.339c-1.652 15.646-17.189 41.755-32.778 40.095-.043-.005-.085-.016-.128-.021a5.49 5.49 0 0 1 4.454 5.972l-10.919-1.162a5.488 5.488 0 0 1 5.909-4.9c-15.186-2.419-24.615-30.579-22.986-45.994C42.741 10.683 56.717-.654 72.305 1.004c15.588 1.66 26.884 15.688 25.23 31.335z" class="cls-1"/><path d="M98.38 32.429l-.845-.09.845.09c-.621 5.85-3.093 12.993-6.742 19.695-3.654 6.698-8.482 12.947-13.91 16.93-3.069 2.249-6.35 3.769-9.724 4.183 1.206 1.167 1.959 2.784 1.96 4.559 0 .224-.012.451-.036.678l-.089.849-5.488-.584a13.99 13.99 0 0 1-1.639 4.653c-.818 1.454-1.69 2.622-2.287 3.883a8.32 8.32 0 0 0-.802 2.809c-.026.25-.038.493-.038.729-.002 1.746.653 3.203 1.399 4.882.737 1.666 1.546 3.549 1.545 5.989 0 .377-.019.766-.06 1.169-.299 2.989-1.648 4.909-2.855 6.654-1.216 1.767-2.302 3.365-2.581 6.048a.852.852 0 0 1-.932.763.852.852 0 0 1-.759-.936c.309-3.106 1.661-5.093 2.874-6.846 1.224-1.776 2.298-3.313 2.562-5.856.035-.346.051-.677.051-.996-.001-2.053-.664-3.636-1.399-5.297-.726-1.649-1.543-3.381-1.545-5.574 0-.294.015-.596.047-.904.131-1.297.495-2.395.959-3.369.465-.975 1.023-1.829 1.559-2.684.952-1.524 1.838-3.03 2.227-5.295l-4.603-.49-.846-.09.09-.849c.23-2.157 1.516-3.93 3.279-4.897-2.252-.925-4.341-2.375-6.244-4.201-3.009-2.888-5.584-6.714-7.697-10.982-4.22-8.54-6.597-18.848-6.601-27.053 0-1.311.06-2.57.187-3.76C41.835 11.175 54.514-.01 69.278-.01c1.03 0 2.07.054 3.117.166 15.007 1.599 26.15 14.324 26.151 29.142 0 1.035-.055 2.079-.166 3.131zM59.178 76.473l4.312.459c.08-.016.16-.033.245-.024a.807.807 0 0 1 .244.076l4.251.452a4.628 4.628 0 0 0-3.609-4.161c-.245-.027-.484-.076-.726-.115-.093-.005-.186-.015-.278-.015a4.645 4.645 0 0 0-4.439 3.328zm13.037-74.62a27.496 27.496 0 0 0-2.937-.157c-13.9 0-25.848 10.536-27.346 24.723a34.108 34.108 0 0 0-.178 3.58c-.001 5.909 1.305 13.094 3.692 19.804 2.382 6.711 5.853 12.948 10.081 16.997 2.603 2.495 5.469 4.14 8.546 4.663.074.006.146.004.219.012.174.019.334.07.502.102l.053.008c.445.048.891.071 1.337.071 3.535.002 7.116-1.469 10.541-3.979 3.423-2.507 6.668-6.042 9.502-10.058 5.673-8.025 9.692-17.998 10.463-25.37.104-.992.156-1.976.156-2.951 0-13.95-10.497-25.942-24.631-27.445zm-2.253 6.04c-12.096.549-21.533 10.568-21.533 22.597 0 .346.008.694.024 1.044a.85.85 0 0 1-1.698.078c-.017-.376-.026-.75-.026-1.122.001-12.94 10.148-23.709 23.156-24.302a.853.853 0 1 1 .077 1.705z" class="cls-2"/><path d="M35.16 82.221a4.386 4.386 0 0 1 5.311 3.1l-8.473 2.334a4.4 4.4 0 0 1 2.797-5.312c-.057.016-.11.04-.167.055-12.827 3.533-29.401-16.195-32.92-29.07-3.52-12.874 4.026-26.175 16.853-29.708 12.827-3.532 26.079 4.04 29.598 16.915 3.47 12.694-.592 37.6-12.999 41.686z" class="cls-3"/><path d="M48.132 65.971c-1.39 4.935-3.48 9.453-6.372 12.719-1.041 1.175-2.196 2.181-3.457 2.98a5.234 5.234 0 0 1 2.988 3.426l.225.822-4.13 1.137c.096.693.145 1.349.145 1.965 0 2.147-.524 3.851-1.01 5.367-.491 1.523-.929 2.851-.928 4.374 0 .388.028.791.092 1.219.161 1.06.518 1.919 1 2.736.481.815 1.095 1.58 1.745 2.403 1.292 1.637 2.736 3.55 3.177 6.519.088.586.128 1.143.128 1.676 0 2.151-.648 3.861-1.235 5.456-.592 1.605-1.128 3.097-1.128 4.974 0 .487.036 1.002.119 1.554a.85.85 0 0 1-1.681.255 12.207 12.207 0 0 1-.138-1.809c-.001-2.217.645-3.966 1.234-5.566.595-1.609 1.129-3.067 1.129-4.864 0-.448-.033-.919-.109-1.421-.289-1.902-1.013-3.238-1.9-4.49-.884-1.248-1.951-2.384-2.803-3.816-.566-.954-1.023-2.047-1.218-3.353a9.863 9.863 0 0 1-.112-1.473c.001-1.862.531-3.399 1.01-4.897.482-1.505.927-2.978.928-4.844 0-.471-.038-.977-.103-1.508l-4.324 1.191-.226-.822a5.3 5.3 0 0 1-.188-1.396c0-1.02.311-1.994.844-2.828-.117.003-.234.011-.351.011-3.27-.002-6.595-1.169-9.797-3.06-3.204-1.893-6.293-4.519-9.091-7.511C7.002 67.105 2.567 59.67.888 53.554a25.123 25.123 0 0 1-.895-6.636c-.001-10.995 7.271-21.07 18.343-24.121a24.853 24.853 0 0 1 6.611-.898c10.954-.001 20.992 7.298 24.032 18.411.816 2.989 1.219 6.578 1.22 10.407-.001 4.959-.68 10.317-2.067 15.254zM32.696 86.578l6.62-1.824a3.543 3.543 0 0 0-3.079-1.824c-.253 0-.508.035-.765.092-.205.069-.409.141-.619.199h-.001a3.556 3.556 0 0 0-2.162 3.264c0 .031.005.062.006.093zM47.34 40.761c-2.83-10.356-12.19-17.155-22.393-17.156-2.035 0-4.103.27-6.161.837C8.469 27.283 1.693 36.678 1.693 46.918c0 2.042.269 4.118.834 6.184l-.819.226.819-.225C3.697 57.395 6.42 62.587 10 67.349c3.576 4.767 8.012 9.112 12.548 11.789 3.023 1.788 6.078 2.826 8.935 2.824.996 0 1.97-.125 2.92-.386l.009-.003c.145-.054.283-.118.434-.16.058-.016.117-.022.175-.036 2.044-.7 3.865-2.013 5.469-3.821 1.763-1.987 3.253-4.56 4.443-7.469 2.384-5.816 3.568-12.966 3.566-19.37.001-3.707-.396-7.165-1.159-9.956zm-31.55-8.833a19.22 19.22 0 0 0-8.458 14.003.85.85 0 1 1-1.691-.176 20.927 20.927 0 0 1 9.211-15.25.847.847 0 0 1 1.177.24.856.856 0 0 1-.239 1.183z" class="cls-2"/></svg>