<svg xmlns="http://www.w3.org/2000/svg" viewBox="0 0 300.062 300.062"><path d="M227.556 76.471v147c0-1.5-.11-2.97-.32-4.42-2.14-14.77-14.88-26.12-30.26-26.08-26.523.088-40.524 32.139-21.95 51.57h-.01l41.79 43.44a14.86 14.86 0 0 0 10.75 4.58H11.476V76.471h216.08z" fill="#ff7876"/><path d="M227.556 149.981v69.07h-.32c-2.14-14.77-14.88-26.12-30.26-26.08-15.12.05-27.94 11.35-30.08 26.08h-12.84v73.51h-69.08v-73.51h-73.5v-69.07h73.5v-73.51h69.08v73.51h73.5z" fill="#ffdb77"/><path d="M227.556 149.981v69.07h-.32c-2.14-14.77-14.88-26.12-30.26-26.08-15.12.05-27.94 11.35-30.08 26.08h-12.84v73.51h-69.08v-73.51h-73.5v-69.07h73.5v-73.51h69.08v73.51h73.5z" fill="#ffdb77"/><path d="M280.096 244.542h.01l-41.8 43.44c-5.858 6.098-15.626 6.115-21.5 0l-41.79-43.44h.01c-18.654-19.514-4.471-51.483 21.95-51.57 15.38-.04 28.12 11.31 30.26 26.08.21 1.45.32 2.92.32 4.42 0-16.87 13.7-30.54 30.59-30.5 26.583.083 40.479 32.185 21.95 51.57z" fill="#ff7876"/><path d="M258.164 185.472h-.093c-8.427 0-16.43 2.729-23.016 7.759V76.472c0-4.143-3.357-7.5-7.5-7.5H149.65c18.402-13.327 31.48-31.248 31.508-45.871.035-18.301-21.382-28.91-36.699-19.747-11.799 7.061-19.826 24.638-24.943 40.718-5.118-16.08-13.144-33.657-24.943-40.718-15.312-9.16-36.736 1.438-36.7 19.747.028 14.623 13.107 32.545 31.508 45.871H11.476a7.499 7.499 0 0 0-7.5 7.5V292.562c0 4.143 3.357 7.5 7.5 7.5h216.081c6.156-.001 11.894-2.446 16.153-6.88.208-.216 41.866-43.499 42.063-43.726 22.671-24.157 5.51-63.881-27.609-63.984zm-38.109-42.991h-58.5v-58.51h58.5v58.51zm-67.89-126.257c2.463-1.474 4.756-1.691 7.432-.751 5.791 2.036 6.566 4.983 6.562 7.599-.021 11.137-15.473 29.574-36.51 40.786 4.458-18.987 12.543-41.671 22.516-47.634zm-79.292 6.847c-.005-2.615.77-5.563 6.561-7.599 2.669-.937 4.962-.727 7.432.751 9.973 5.963 18.058 28.647 22.517 47.634-21.038-11.211-36.489-29.649-36.51-40.786zm4.602 60.901v58.51h-58.5v-58.51h58.5zm-58.5 142.58h58.5v58.51h-58.5v-58.51zm73.5 58.51v-66.01a7.5 7.5 0 0 0-7.5-7.5h-66v-54.07h66a7.5 7.5 0 0 0 7.5-7.5v-66.01h54.08v66.01c0 4.143 3.357 7.5 7.5 7.5h66v35.802c-20.656-15.749-50.736-6.746-59.059 18.268h-6.941a7.499 7.499 0 0 0-7.5 7.5v66.01h-54.08zm111.114 0h-42.034v-47.929c3.582 9.184 5.244 9.685 42.034 47.929zm71.086-45.703a7.118 7.118 0 0 0-.203.222l-41.575 43.205a7.401 7.401 0 0 1-10.686-.004c-47.204-49.069-40.816-42.423-41.763-43.423-5.122-5.358-7.493-12.362-5.914-20.35 6.01-27.963 45.521-22.38 45.521 4.462 0 4.143 3.357 7.5 7.5 7.5s7.5-3.357 7.5-7.5c0-12.583 10.173-23 23.011-23h.057c20.005.064 30.501 24.295 16.552 38.888z" fill="#414042"/></svg>