<svg xmlns="http://www.w3.org/2000/svg" preserveAspectRatio="xMidYMid" width="59.906" height="59.87" viewBox="0 0 59.906 59.87"><defs><style>.cls-1{fill:#00a761}.cls-1,.cls-2,.cls-3{fill-rule:evenodd}.cls-2{fill:#fff}.cls-3{fill:#444}</style></defs><path d="M.856 29.939c0 7.773 3.029 15.08 8.526 20.571 5.493 5.496 12.803 8.523 20.579 8.523 7.77 0 15.079-3.027 20.572-8.523 5.498-5.491 8.526-12.798 8.526-20.571 0-7.768-3.028-15.074-8.526-20.569C45.04 3.879 37.731.851 29.961.851c-7.776 0-15.086 3.028-20.579 8.523C3.885 14.865.856 22.171.856 29.939z" class="cls-1"/><path d="M8.117 29.941a21.676 21.676 0 0 0 6.399 15.438 21.692 21.692 0 0 0 15.444 6.397 21.691 21.691 0 0 0 15.44-6.397 21.675 21.675 0 0 0 6.398-15.438c0-5.83-2.272-11.313-6.398-15.437a21.704 21.704 0 0 0-15.44-6.393 21.695 21.695 0 0 0-15.444 6.396 21.673 21.673 0 0 0-6.399 15.434z" class="cls-2"/><path d="M51.136 51.112c-5.649 5.653-13.184 8.774-21.175 8.772-7.998.002-15.532-3.119-21.181-8.772C3.125 45.465.003 37.934.004 29.939.003 21.949 3.125 14.418 8.78 8.772 14.429 3.119 21.963-.002 29.961 0c7.991-.002 15.526 3.119 21.174 8.768 5.656 5.65 8.777 13.181 8.776 21.171.001 7.995-3.12 15.526-8.775 21.173zm-1.205-41.14c-5.337-5.334-12.422-8.268-19.97-8.269-7.554.001-14.639 2.935-19.977 8.273-5.339 5.336-8.275 12.417-8.276 19.963.001 7.551 2.937 14.633 8.277 19.969 5.337 5.338 12.422 8.272 19.976 8.273 7.548-.001 14.633-2.935 19.97-8.273 5.34-5.336 8.275-12.418 8.277-19.969-.002-7.546-2.937-14.627-8.277-19.967zm-3.929 36.009a22.547 22.547 0 0 1-16.042 6.646 22.551 22.551 0 0 1-16.046-6.645 22.535 22.535 0 0 1-6.649-16.041 22.53 22.53 0 0 1 6.648-16.036A22.552 22.552 0 0 1 29.96 7.259a22.559 22.559 0 0 1 16.042 6.643 22.542 22.542 0 0 1 6.648 16.039 22.534 22.534 0 0 1-6.648 16.04zm-1.205-30.875A20.842 20.842 0 0 0 29.96 8.962c-5.614.001-10.875 2.18-14.842 6.147-3.968 3.966-6.148 9.224-6.149 14.832.001 5.612 2.181 10.871 6.149 14.836 3.967 3.967 9.228 6.146 14.842 6.147a20.838 20.838 0 0 0 14.838-6.147c3.967-3.965 6.147-9.224 6.149-14.836-.002-5.608-2.181-10.866-6.15-14.835zm4.198 15.687h-1.887a.851.851 0 1 1 0-1.702h1.887a.851.851 0 1 1 0 1.702zM29.96 49.824a.852.852 0 0 1-.852-.851v-1.886a.853.853 0 0 1 1.704 0v1.886c0 .47-.382.851-.852.851zM18.014 38.252a.852.852 0 0 1-.91-1.44l12.002-7.571V20.87a.851.851 0 0 1 1.703 0v8.84a.848.848 0 0 1-.397.72l-12.398 7.822zm11.944-24.601a.851.851 0 0 1-.852-.852v-1.886a.851.851 0 0 1 1.703 0v1.886a.851.851 0 0 1-.851.852zm-17.15 17.145h-1.887a.852.852 0 0 1 0-1.703h1.887a.851.851 0 1 1 0 1.703z" class="cls-3"/></svg>