<svg xmlns="http://www.w3.org/2000/svg" preserveAspectRatio="xMidYMid" width="73.656" height="43.125" viewBox="0 0 73.656 43.125"><defs><style>.cls-1{fill:#00a761}.cls-1,.cls-2,.cls-3{fill-rule:evenodd}.cls-2{fill:#fff}.cls-3{fill:#444}</style></defs><path d="M52.193 21.563c0 8.352-6.773 15.124-15.129 15.124s-15.13-6.772-15.13-15.124c0-8.353 6.774-15.124 15.13-15.124 8.356 0 15.129 6.771 15.129 15.124z" class="cls-1"/><path d="M45.303 21.563a8.237 8.237 0 0 1-8.239 8.236 8.238 8.238 0 1 1 0-16.473 8.238 8.238 0 0 1 8.239 8.237z" class="cls-2"/><path d="M37.064 37.538c-8.827-.001-15.981-7.152-15.981-15.975 0-8.824 7.154-15.975 15.981-15.976 8.826.001 15.98 7.152 15.981 15.976-.001 8.823-7.155 15.974-15.981 15.975zM47.16 11.47a14.232 14.232 0 0 0-10.096-4.18c-3.946 0-7.51 1.596-10.096 4.18a14.223 14.223 0 0 0-4.182 10.093 14.22 14.22 0 0 0 4.182 10.092 14.229 14.229 0 0 0 10.096 4.18c3.945 0 7.509-1.596 10.096-4.18a14.225 14.225 0 0 0 4.182-10.092A14.227 14.227 0 0 0 47.16 11.47zM37.064 30.65a9.088 9.088 0 0 1 0-18.175 9.09 9.09 0 0 1 9.091 9.088 9.09 9.09 0 0 1-9.091 9.087zm5.224-14.309a7.36 7.36 0 0 0-5.224-2.163 7.358 7.358 0 0 0-5.224 2.163 7.352 7.352 0 0 0-2.164 5.222c0 2.042.825 3.882 2.164 5.222a7.366 7.366 0 0 0 5.224 2.163 7.368 7.368 0 0 0 5.224-2.163 7.362 7.362 0 0 0 2.164-5.222 7.36 7.36 0 0 0-2.164-5.222z" class="cls-3"/><path d="M45.9 16.245a3.8 3.8 0 0 1-3.802 3.799 3.8 3.8 0 1 1 0-7.599 3.8 3.8 0 0 1 3.802 3.8z" class="cls-2"/><path d="M73.238 22.098c-.025.03-4.243 5.25-10.851 10.493-6.609 5.233-15.618 10.534-25.323 10.546-9.984-.011-19.113-5.31-25.766-10.544C4.644 27.349.454 22.127.428 22.095l-.414-.516.398-.528c.028-.036 3.96-5.264 10.489-10.513C17.428 5.296 26.574-.004 37.064-.012c10.322.008 19.353 5.311 25.807 10.553 6.457 5.249 10.36 10.477 10.387 10.512l.396.53-.416.515zm-4.024-3.201a68.54 68.54 0 0 0-7.418-7.035C55.504 6.742 46.779 1.683 37.064 1.691c-9.583-.006-18.178 4.742-24.492 9.695-5.459 4.278-9.19 8.678-10.383 10.161a65.827 65.827 0 0 0 2.419 2.665 76.192 76.192 0 0 0 7.744 7.043c6.497 5.127 15.354 10.189 24.712 10.179 8.778.011 17.262-4.736 23.652-9.697 5.546-4.297 9.503-8.72 10.764-10.194a58.548 58.548 0 0 0-2.266-2.646zm-27.116 1.999a4.653 4.653 0 0 1-4.653-4.651 4.653 4.653 0 0 1 9.306 0 4.652 4.652 0 0 1-4.653 4.651zm0-7.6a2.953 2.953 0 0 0-2.949 2.949 2.952 2.952 0 0 0 2.949 2.948 2.953 2.953 0 0 0 2.95-2.948 2.953 2.953 0 0 0-2.95-2.949z" class="cls-3"/></svg>