<svg xmlns="http://www.w3.org/2000/svg" preserveAspectRatio="xMidYMid" width="73.656" height="43.125" viewBox="0 0 73.656 43.125"><defs><style>.cls-1{fill:#00a761}.cls-1,.cls-2,.cls-3{fill-rule:evenodd}.cls-2{fill:#fff}.cls-3{fill:#555}</style></defs><path d="M52.193 21.562c0 8.353-6.773 15.125-15.129 15.125s-15.13-6.772-15.13-15.125c0-8.352 6.774-15.123 15.13-15.123 8.356 0 15.129 6.771 15.129 15.123z" class="cls-1"/><path d="M45.303 21.562a8.238 8.238 0 0 1-8.239 8.237 8.238 8.238 0 0 1-8.24-8.237 8.238 8.238 0 0 1 8.24-8.236 8.238 8.238 0 0 1 8.239 8.236z" class="cls-2"/><path d="M37.064 37.538c-8.827-.001-15.981-7.152-15.981-15.976 0-8.823 7.154-15.974 15.981-15.975 8.826.001 15.98 7.152 15.981 15.975-.001 8.824-7.155 15.975-15.981 15.976zM47.16 11.47a14.232 14.232 0 0 0-10.096-4.18c-3.946 0-7.51 1.596-10.096 4.18a14.222 14.222 0 0 0-4.182 10.092c0 3.945 1.597 7.507 4.182 10.093a14.229 14.229 0 0 0 10.096 4.18c3.945 0 7.509-1.596 10.096-4.18a14.225 14.225 0 0 0 4.182-10.093A14.226 14.226 0 0 0 47.16 11.47zM37.064 30.65a9.088 9.088 0 1 1 0-18.175 9.09 9.09 0 0 1 9.091 9.087 9.09 9.09 0 0 1-9.091 9.088zm5.224-14.31a7.363 7.363 0 0 0-5.224-2.162 7.361 7.361 0 0 0-5.224 2.162 7.36 7.36 0 0 0-2.164 5.222c0 2.043.826 3.883 2.164 5.223a7.366 7.366 0 0 0 5.224 2.163 7.368 7.368 0 0 0 5.224-2.163 7.363 7.363 0 0 0 2.164-5.223 7.364 7.364 0 0 0-2.164-5.222z" class="cls-3"/><path d="M45.9 16.245a3.8 3.8 0 0 1-3.802 3.799 3.8 3.8 0 1 1 0-7.599 3.8 3.8 0 0 1 3.802 3.8z" class="cls-2"/><path d="M73.238 22.098c-.025.03-4.243 5.25-10.851 10.493-6.609 5.233-15.618 10.534-25.323 10.545-9.984-.01-19.113-5.309-25.766-10.544C4.644 27.349.454 22.127.428 22.095l-.414-.516.398-.528c.028-.036 3.96-5.264 10.489-10.513C17.428 5.296 26.574-.004 37.064-.012c10.322.008 19.353 5.311 25.807 10.552 6.457 5.251 10.36 10.478 10.387 10.513l.396.53-.416.515zm-4.024-3.201a68.633 68.633 0 0 0-7.418-7.036C55.504 6.742 46.779 1.684 37.064 1.691c-9.583-.006-18.178 4.742-24.492 9.695-5.459 4.277-9.19 8.678-10.384 10.161l.3.348c.484.557 1.2 1.356 2.12 2.317a76.192 76.192 0 0 0 7.744 7.043c6.497 5.127 15.354 10.189 24.712 10.179 8.778.011 17.262-4.736 23.652-9.698 5.546-4.296 9.503-8.719 10.764-10.193a58.548 58.548 0 0 0-2.266-2.646zm-27.116 1.999a4.653 4.653 0 0 1-4.653-4.651 4.653 4.653 0 0 1 9.306 0 4.652 4.652 0 0 1-4.653 4.651zm0-7.6a2.953 2.953 0 0 0-2.949 2.949 2.952 2.952 0 0 0 2.949 2.948 2.953 2.953 0 0 0 2.95-2.948 2.953 2.953 0 0 0-2.95-2.949z" class="cls-3"/></svg>