<svg xmlns="http://www.w3.org/2000/svg" preserveAspectRatio="xMidYMid" width="72" height="99" viewBox="0 0 72 99"><defs><style>.cls-1{fill:#ffdfb6}.cls-1,.cls-2,.cls-3,.cls-4{fill-rule:evenodd}.cls-2{fill:#444}.cls-3{fill:#00a761}.cls-4{fill:#d8676b}</style></defs><path d="M59.016 42.102s-1.044-25.439-1.16-27.646c-.115-2.207-1.39-4.762-3.94-4.762s-3.478 2.091-3.478 4.181c0 2.091.464 21.025.464 21.025s-.579-21.489-.579-23.928c0-2.44-1.739-4.066-3.709-4.066-1.971 0-4.057 1.51-4.057 3.601V34.9s-.232-19.863-.464-21.838c-.232-1.974-1.468-3.717-3.902-3.717-2.202 0-3.516 1.743-3.516 3.485 0 1.742.116 23.58.116 23.58s-.348-12.545-.463-14.868c-.116-2.323-1.855-3.485-2.782-3.369-.927.116-3.362.465-3.477 3.136-.116 2.672-.348 23.697-.348 28.459 0 4.762 2.434 8.828 4.057 10.686 1.622 1.859 2.434 3.485 2.434 5.692v6.04h20.747v-6.504c0-2.44 1.043-3.021 2.55-4.414 1.507-1.394 4.52-4.414 5.447-5.344.928-.929 1.855-3.949 2.898-6.853 1.043-2.904 5.332-13.126 5.332-13.126s-1.13-2.612-4.521-1.626c-3.593 1.046-5.679 9.757-7.649 7.783z" class="cls-1"/><path d="M71.912 36.252l-.685 1.64c-.418 1.003-.986 2.371-1.587 3.829-1.2 2.912-2.536 6.201-3.044 7.618-.78 2.165-1.489 4.407-2.24 5.89-.256.498-.51.916-.842 1.254-.931.932-3.939 3.948-5.47 5.365-.587.541-1.078.946-1.427 1.324-.351.382-.568.711-.714 1.207-.096.332-.156.748-.156 1.303v6.504a.792.792 0 0 1-.788.791H34.212a.795.795 0 0 1-.558-.232.796.796 0 0 1-.231-.559v-6.04c-.002-1.007-.18-1.838-.54-2.655-.362-.816-.919-1.623-1.699-2.516-.868-.996-1.917-2.532-2.765-4.456-.845-1.923-1.486-4.234-1.487-6.751 0-2.39.058-8.835.131-15.023.072-6.192.159-12.099.218-13.47.032-.786.246-1.457.583-1.989a3.611 3.611 0 0 1 1.239-1.184c.908-.532 1.855-.648 2.34-.712l.234-.015c.397.002.78.113 1.154.3.373.188.735.457 1.062.807.006.007.011.016.018.023a2505.25 2505.25 0 0 1-.024-5.675 4.341 4.341 0 0 1 1.142-2.933c.74-.808 1.851-1.346 3.162-1.342 1.404-.007 2.569.526 3.351 1.366.097.104.172.222.258.333.08-1.206.693-2.238 1.543-2.94a5.2 5.2 0 0 1 3.271-1.198 4.37 4.37 0 0 1 3.162 1.361c.635.662 1.078 1.543 1.25 2.554a3.61 3.61 0 0 1 .911-.681c.566-.292 1.234-.447 1.979-.447a4.121 4.121 0 0 1 2.065.538 4.589 4.589 0 0 1 1.459 1.347c.761 1.073 1.136 2.389 1.204 3.627.106 2.025.98 23.297 1.136 27.075.08-.065.176-.153.288-.282.301-.345.662-.894 1.047-1.533.778-1.281 1.657-2.914 2.737-4.206.723-.857 1.546-1.598 2.593-1.909a5.957 5.957 0 0 1 1.669-.254c1.356-.005 2.344.573 2.932 1.143.595.57.835 1.121.863 1.182a.797.797 0 0 1 .003.621zm-3.798-1.365a4.4 4.4 0 0 0-1.229.191c-.373.108-.775.353-1.184.728-.409.374-.819.869-1.215 1.426-.795 1.116-1.526 2.467-2.222 3.59-.471.751-.906 1.401-1.45 1.867a2.076 2.076 0 0 1-.887.423.803.803 0 0 1-.224.051c-.031.002-.053.019-.084.019-.009 0-.016-.006-.024-.006-.01 0-.019.005-.029.004a7.804 7.804 0 0 0-.565-.021 6.643 6.643 0 0 0-3.549.992c-.976.6-1.77 1.42-2.395 2.269-1.253 1.696-1.809 3.497-1.856 3.665l-.003.012a.788.788 0 1 1-1.519-.426c.011-.038.321-1.144 1.07-2.539.75-1.393 1.939-3.089 3.763-4.256 1.026-.655 2.27-1.109 3.695-1.24l-.144-3.511-.371-8.986c-.276-6.632-.566-13.552-.623-14.641a5.744 5.744 0 0 0-.547-2.172c-.323-.666-.775-1.201-1.322-1.512a2.53 2.53 0 0 0-1.284-.33c-.531.001-.935.106-1.26.272-.324.168-.579.4-.79.699-.423.594-.642 1.489-.639 2.42 0 1.537.26 12.598.391 18.015l.072 2.99c.001.025-.01.046-.012.071a.805.805 0 0 1-.041.235.786.786 0 0 1-1.278.287l-.004-.006a.773.773 0 0 1-.172-.243.836.836 0 0 1-.057-.249c-.002-.019-.012-.035-.012-.054v-.002l-.001-.016c-.005-.193-.147-5.459-.289-11.032-.145-5.683-.29-11.65-.29-12.899-.002-1.032-.36-1.839-.896-2.401a2.793 2.793 0 0 0-2.024-.875c-.785-.003-1.643.313-2.264.834-.626.526-1.004 1.205-1.005 1.977V34.9a.79.79 0 0 1-.784.79.79.79 0 0 1-.793-.781V34.9v-.006a2273.867 2273.867 0 0 0-.113-8.226c-.07-4.439-.164-9.525-.263-12.07a25.545 25.545 0 0 0-.082-1.443c-.1-.855-.417-1.622-.916-2.149-.503-.526-1.173-.864-2.203-.871-.891.005-1.538.337-2.005.836a2.76 2.76 0 0 0-.722 1.859c0 1.299.065 13.915.098 20.136l.018 3.44a.788.788 0 0 1-1.577.026l-.056-1.996-.132-4.566c-.102-3.423-.218-7.147-.275-8.289-.036-.695-.239-1.235-.509-1.649a2.434 2.434 0 0 0-.909-.845 1.085 1.085 0 0 0-.445-.132l-.028.002h-.005c-.335.041-.825.113-1.293.293-.47.182-.885.453-1.154.881-.181.289-.315.663-.341 1.213-.056 1.301-.144 7.242-.216 13.42-.073 6.183-.131 12.632-.131 15.004 0 2.245.576 4.348 1.353 6.113.775 1.764 1.754 3.19 2.509 4.053.843.965 1.503 1.901 1.953 2.915.45 1.012.678 2.097.676 3.297v5.25h19.17v-5.714c0-.666.071-1.237.218-1.743.146-.507.37-.943.641-1.319.549-.753 1.223-1.26 1.945-1.933 1.482-1.371 4.501-4.395 5.425-5.322.131-.127.341-.434.552-.854.215-.421.442-.956.676-1.559.467-1.207.96-2.685 1.485-4.149.535-1.487 1.865-4.761 3.07-7.685.939-2.28 1.791-4.319 2.124-5.113a2.573 2.573 0 0 0-.348-.412c-.38-.355-.928-.701-1.844-.706zM31.448 17.389l-.005.001h-.001l.006-.001z" class="cls-2"/><path d="M32.878 79.621h23.298c.736 0 1.333-.598 1.333-1.336v-7.551c0-.738-.597-1.335-1.333-1.335H32.878c-.736 0-1.332.597-1.332 1.335v7.551c0 .738.596 1.336 1.332 1.336z" class="cls-3"/><path d="M32.878 79.621v.79h23.298a2.124 2.124 0 0 0 2.121-2.126v-7.551a2.124 2.124 0 0 0-2.121-2.126H32.878a2.124 2.124 0 0 0-2.121 2.126v7.551a2.124 2.124 0 0 0 2.121 2.126V78.83a.545.545 0 0 1-.544-.545v-7.551a.545.545 0 0 1 .544-.545h23.298c.3 0 .544.244.544.545v7.551a.545.545 0 0 1-.544.545H32.878v.791z" class="cls-2"/><g><path d="M13.696 61.616s1.043-25.438 1.159-27.645c.116-2.207 1.391-4.763 3.941-4.763s3.477 2.091 3.477 4.182-.463 21.024-.463 21.024.579-21.489.579-23.928 1.739-4.066 3.709-4.066c1.971 0 4.057 1.51 4.057 3.601v24.393s.232-19.863.464-21.837c.231-1.975 1.468-3.717 3.902-3.717 2.202 0 3.516 1.742 3.516 3.484 0 1.743-.116 23.58-.116 23.58s.347-12.545.463-14.868c.116-2.323 1.855-3.484 2.782-3.368.927.116 3.361.464 3.477 3.136.116 2.672.348 23.696.348 28.458 0 4.763-2.434 8.828-4.057 10.687-1.623 1.858-2.434 3.485-2.434 5.692v6.04H17.753v-6.505c0-2.439-1.043-3.02-2.55-4.414-1.507-1.394-4.52-4.414-5.448-5.343-.927-.929-1.854-3.95-2.897-6.854C5.815 65.682 1.526 55.46 1.526 55.46s1.13-2.613 4.52-1.626c3.593 1.045 5.68 9.757 7.65 7.782z" class="cls-1"/><path d="M39.834 98.206H16.535a1.334 1.334 0 0 1-1.332-1.336v-7.551c0-.737.596-1.335 1.332-1.335h23.299c.735 0 1.332.598 1.332 1.335v7.551c0 .738-.597 1.336-1.332 1.336z" class="cls-4"/><path d="M44.292 76.033c-.847 1.925-1.897 3.461-2.764 4.456-.781.893-1.337 1.7-1.699 2.516-.361.817-.539 1.648-.54 2.656V87h-1.577v-1.339c-.002-1.2.225-2.285.676-3.298.45-1.014 1.11-1.949 1.953-2.915.755-.863 1.734-2.289 2.509-4.052.777-1.765 1.353-3.868 1.352-6.114 0-2.372-.058-8.821-.13-15.004-.072-6.178-.16-12.119-.217-13.42-.025-.55-.159-.924-.34-1.212a2.029 2.029 0 0 0-.706-.667c-.567-.339-1.297-.455-1.741-.507l-.004-.001-.03-.001a1.063 1.063 0 0 0-.445.131 2.261 2.261 0 0 0-.619.476c-.407.437-.75 1.094-.798 2.019-.086 1.718-.304 9.222-.407 12.854l-.056 1.996a.787.787 0 1 1-1.577-.026l.018-3.439.04-7.697c.029-5.676.058-11.575.058-12.44a2.766 2.766 0 0 0-.722-1.858c-.467-.499-1.114-.832-2.005-.836-1.03.007-1.7.345-2.204.87-.499.528-.816 1.294-.915 2.149-.017.14-.04.481-.061.94-.021.462-.042 1.053-.063 1.74a513.45 513.45 0 0 0-.12 5.021 1889.979 1889.979 0 0 0-.215 14.054.79.79 0 0 1-1.577-.01V30.021c0-.772-.378-1.451-1.004-1.976-.622-.521-1.48-.838-2.264-.834-.767 0-1.486.313-2.024.874-.536.563-.894 1.37-.896 2.401-.001 1.25-.145 7.216-.29 12.899-.143 5.573-.285 10.84-.29 11.032V54.436c-.001.019-.011.035-.013.054a.767.767 0 0 1-.057.248.78.78 0 0 1-.164.233c-.004.005-.006.011-.011.016a.8.8 0 0 1-.564.217.803.803 0 0 1-.552-.246l-.002-.003a.792.792 0 0 1-.16-.255.768.768 0 0 1-.041-.235c-.002-.024-.013-.045-.013-.07l.073-2.991.159-6.736c.116-4.99.232-10.261.232-11.278.001-.697-.119-1.379-.361-1.922-.244-.547-.585-.947-1.068-1.197-.325-.166-.729-.272-1.26-.273a2.545 2.545 0 0 0-1.285.331 3.048 3.048 0 0 0-.957.892c-.543.756-.863 1.822-.911 2.791-.087 1.64-.695 16.373-.994 23.627l-.165 4.009a.795.795 0 0 1-.231.528c-.292.3-.713.524-1.16.52-.369 0-.689-.136-.947-.307a3.45 3.45 0 0 1-.691-.628c-.418-.483-.804-1.087-1.208-1.752-.799-1.326-1.661-2.9-2.595-4.01-.619-.744-1.258-1.248-1.826-1.407a4.39 4.39 0 0 0-1.229-.191c-.779.004-1.284.255-1.658.546-.26.203-.418.409-.531.577.334.799 1.185 2.834 2.122 5.108 1.204 2.925 2.535 6.198 3.07 7.686.784 2.19 1.51 4.435 2.161 5.707.211.421.421.728.552.855.924.926 3.942 3.95 5.425 5.321.544.505 1.052.917 1.511 1.408.457.488.857 1.082 1.075 1.844.146.507.217 1.077.217 1.743V87h-1.577v-1.804c0-.554-.059-.971-.155-1.303a2.645 2.645 0 0 0-.406-.834c-.349-.495-.95-.976-1.735-1.696-1.531-1.417-4.54-4.433-5.47-5.365-.333-.338-.587-.757-.842-1.255a18.905 18.905 0 0 1-.741-1.704c-.489-1.262-.981-2.745-1.499-4.186-.381-1.06-1.229-3.181-2.134-5.398a890.84 890.84 0 0 0-3.183-7.689.794.794 0 0 1 .003-.62c.029-.062.269-.612.864-1.183.587-.569 1.575-1.147 2.931-1.142a5.942 5.942 0 0 1 1.669.253c1.331.403 2.303 1.47 3.162 2.641.853 1.179 1.583 2.517 2.234 3.584.429.709.836 1.298 1.141 1.594.052.052.088.075.129.108.156-3.788 1.03-25.047 1.136-27.072a7.309 7.309 0 0 1 .704-2.781c.427-.879 1.065-1.681 1.958-2.193a4.127 4.127 0 0 1 2.066-.537c.744-.001 1.413.155 1.979.446.351.18.645.423.91.688.171-1.014.614-1.897 1.251-2.561a4.366 4.366 0 0 1 3.162-1.361 5.198 5.198 0 0 1 3.271 1.199c.846.699 1.473 1.721 1.557 2.92.082-.104.152-.216.244-.314.781-.839 1.946-1.372 3.351-1.366 1.311-.004 2.422.535 3.162 1.343a4.339 4.339 0 0 1 1.142 2.932c0 .517-.01 2.786-.024 5.721.334-.368.694-.681 1.079-.876.374-.186.757-.298 1.154-.3l.234.015c.361.046.988.128 1.658.385.669.256 1.414.709 1.922 1.512.337.531.55 1.202.583 1.989.059 1.37.145 7.277.218 13.47.072 6.188.13 12.632.13 15.022 0 2.518-.641 4.829-1.487 6.751zm-3.024-39.129l-.004-.001.004.001zM16.163 87.006h23.668a2.157 2.157 0 0 1 2.154 2.159v7.672a2.157 2.157 0 0 1-2.154 2.159H16.163a2.159 2.159 0 0 1-2.155-2.159v-7.672a2.158 2.158 0 0 1 2.155-2.159zm-.553 9.831a.554.554 0 0 0 .553.553h23.668a.553.553 0 0 0 .552-.553v-7.672a.553.553 0 0 0-.552-.553H16.163a.554.554 0 0 0-.553.553v7.672z" class="cls-2"/></g><path d="M25.304 14.817a1.314 1.314 0 0 1-1.768-.576L17.277 1.928a1.318 1.318 0 0 1 .575-1.771 1.312 1.312 0 0 1 1.767.576l6.259 12.312c.33.648.073 1.442-.574 1.772zm-6.788 3.636a1.312 1.312 0 0 1-1.854.136l-10.2-8.828a1.318 1.318 0 0 1-.135-1.857 1.31 1.31 0 0 1 1.853-.136l10.2 8.828c.55.475.61 1.307.136 1.857zm-3.869 6.309a1.315 1.315 0 0 1-1.498 1.102L1.094 24.005a1.317 1.317 0 0 1 .4-2.603l12.054 1.858c.718.111 1.21.783 1.099 1.502z" class="cls-2"/></svg>