<svg xmlns="http://www.w3.org/2000/svg" viewBox="0 0 937.5 1000"><path d="M0 500q0-95 37-182t100-149T286 69t183-37q95 0 182 37t149 100 100 149 37 182q0 95-37 182T800 832 651 932t-182 37q-96 0-183-37T137 832 37 682 0 500zm117 0q0 96 47 177t128 128 177 47q95 0 176-47t128-128 47-177q0-95-47-176T645 196t-176-47q-72 0-137 28t-112 75-75 112-28 136zm271-196q-4-36 19-63t58-31q35-3 62 19t31 58q1 9 0 17l-27 244q-2 24-21 39t-43 13q-21-2-36-16t-17-36zm11 411q0-31 22-52 20-20 52-20t51 20q22 21 22 52t-22 52q-20 22-52 22-30 0-51-22-22-21-22-52z"/></svg>