<svg xmlns="http://www.w3.org/2000/svg" preserveAspectRatio="xMidYMid" width="62.781" height="64.094" viewBox="0 0 62.781 64.094"><defs><style>.cls-1{fill:#00abd0}.cls-1,.cls-2,.cls-3{fill-rule:evenodd}.cls-2{fill:#fff}.cls-3{fill:#555}</style></defs><path d="M54.399 52.13l-2.111.122a6.04 6.04 0 0 0-5.471 4.425l-.564 2.038a2.093 2.093 0 0 1-1.117 1.342 2.149 2.149 0 0 1-1.742.062l-1.957-.81a6.021 6.021 0 0 0-6.844 1.619l-1.383 1.587a2.087 2.087 0 0 1-1.527.727 2.066 2.066 0 0 1-1.649-.706l-1.415-1.577a5.983 5.983 0 0 0-6.875-1.506l-1.936.829a2.11 2.11 0 0 1-2.336-.45 2.06 2.06 0 0 1-.533-.901l-.594-2.029a6.026 6.026 0 0 0-5.543-4.353l-2.111-.081a2.107 2.107 0 0 1-1.414-.615 2.07 2.07 0 0 1-.594-1.844l.348-2.089a6.066 6.066 0 0 0-1.68-5.265 6.019 6.019 0 0 0-1.425-1.054l-1.854-.994a2.203 2.203 0 0 1-.502-.379 2.114 2.114 0 0 1-.226-2.725l1.22-1.73a6.029 6.029 0 0 0-.051-7.037l-1.25-1.7c-.359-.502-.492-1.106-.359-1.71a2.07 2.07 0 0 1 1.045-1.393l1.845-1.024a6.027 6.027 0 0 0 3.002-6.361l-.38-2.079a2.092 2.092 0 0 1 .421-1.69 2.122 2.122 0 0 1 1.547-.809l2.11-.123a6.042 6.042 0 0 0 5.472-4.425l.563-2.038a2.087 2.087 0 0 1 1.117-1.342 2.153 2.153 0 0 1 1.742-.061l1.957.809a6.02 6.02 0 0 0 6.844-1.618l1.384-1.588a2.09 2.09 0 0 1 1.526-.727 2.07 2.07 0 0 1 1.65.707l1.414 1.577a5.984 5.984 0 0 0 6.875 1.505l1.936-.829a2.11 2.11 0 0 1 2.336.45c.257.256.431.554.533.902l.594 2.028c.277.973.81 1.874 1.527 2.591a6.003 6.003 0 0 0 4.016 1.762l2.111.082c.533.02 1.035.235 1.414.615.492.491.717 1.167.594 1.843l-.348 2.089a6.025 6.025 0 0 0 3.105 6.32l1.864 1.003c.185.103.349.225.503.38.727.727.829 1.874.225 2.724l-1.219 1.731a6.026 6.026 0 0 0 .051 7.036l1.25 1.7c.358.502.491 1.107.358 1.711a2.072 2.072 0 0 1-1.045 1.393l-1.844 1.024a6.027 6.027 0 0 0-3.002 6.361l.38 2.079a2.093 2.093 0 0 1-.421 1.69c-.4.481-.953.768-1.557.799z" class="cls-1"/><path d="M53.154 32.05c0 12.012-9.741 21.75-21.758 21.75-12.016 0-21.758-9.738-21.758-21.75S19.38 10.3 31.396 10.3c12.017 0 21.758 9.738 21.758 21.75z" class="cls-2"/><path d="M24.848 40.523h-5.717V27.341h5.717v13.182z" class="cls-1"/><path d="M62.142 27.099l.001-.001.001-.002-.002.003zm-1.217 1.728l-.002.002a5.15 5.15 0 0 0-.951 2.986c0 1.072.332 2.143.997 3.058l-.003-.004 1.254 1.706.003.004a2.994 2.994 0 0 1 .497 2.388 2.926 2.926 0 0 1-1.467 1.956l-1.84 1.022a5.181 5.181 0 0 0-2.666 4.522c0 .311.028.625.087.939v.003l.38 2.077a2.955 2.955 0 0 1-.589 2.371l-.007.009-.007.008a3.012 3.012 0 0 1-2.169 1.106h.006l-2.11.122a5.187 5.187 0 0 0-4.7 3.802l-.564 2.038a2.95 2.95 0 0 1-1.569 1.883 3.014 3.014 0 0 1-2.422.086l-.004-.001-1.965-.813a5.195 5.195 0 0 0-1.977-.391 5.147 5.147 0 0 0-3.899 1.778l-.003.003-1.381 1.585a2.946 2.946 0 0 1-2.141 1.021h-.005l-.099.002a2.92 2.92 0 0 1-2.209-.992l-.001.001-1.414-1.578a5.132 5.132 0 0 0-5.902-1.292l-.003.001-1.932.828c-.378.165-.78.246-1.176.245a2.972 2.972 0 0 1-2.85-2.138l-.596-2.035a5.176 5.176 0 0 0-4.757-3.735l-2.111-.082a2.958 2.958 0 0 1-1.983-.863 2.942 2.942 0 0 1-.877-2.081c0-.166.015-.335.046-.505h-.001l.348-2.088a5.204 5.204 0 0 0-1.442-4.523 5.187 5.187 0 0 0-1.225-.907l-1.866-1a3.098 3.098 0 0 1-.691-.521 2.966 2.966 0 0 1-.316-3.82l-.003.004 1.219-1.732.002-.002a5.15 5.15 0 0 0 .951-2.986 5.197 5.197 0 0 0-.996-3.058l.003.004-1.258-1.709a2.997 2.997 0 0 1-.497-2.388 2.929 2.929 0 0 1 1.467-1.957l-.003.002 1.843-1.023a5.182 5.182 0 0 0 2.579-5.464l-.38-2.078a2.946 2.946 0 0 1 .589-2.37 2.979 2.979 0 0 1 2.161-1.133l-.013.001 2.128-.124a5.19 5.19 0 0 0 4.702-3.801l.563-2.039a2.945 2.945 0 0 1 1.563-1.879l.006-.003a3.013 3.013 0 0 1 2.423-.087l.002.001 1.968.814-.002-.001a5.191 5.191 0 0 0 1.977.391 5.15 5.15 0 0 0 3.9-1.778l.002-.002 1.383-1.588-.002.003A2.941 2.941 0 0 1 31.069.006l.103-.002a2.926 2.926 0 0 1 2.211.992l1.414 1.577a5.128 5.128 0 0 0 3.833 1.724c.694 0 1.396-.141 2.069-.432l.003-.001 1.932-.827a2.94 2.94 0 0 1 1.176-.246c.776 0 1.535.307 2.103.874.354.351.61.79.747 1.265l.594 2.028.002.006a5.17 5.17 0 0 0 4.757 3.735l2.111.082a2.954 2.954 0 0 1 1.983.864 2.94 2.94 0 0 1 .877 2.08c0 .169-.016.337-.045.505l-.001.01v.001h-.001l-.346 2.078v.003a5.138 5.138 0 0 0-.074.862 5.183 5.183 0 0 0 2.742 4.565l1.875 1.009c.25.139.484.314.691.521a2.97 2.97 0 0 1 .318 3.819l-1.218 1.729zm-.305-4.343a1.332 1.332 0 0 0-.313-.237l-1.855-.999a6.881 6.881 0 0 1-3.541-7.212v.003l.35-2.1.019-.214c0-.315-.125-.623-.377-.876a1.247 1.247 0 0 0-.845-.366l-2.112-.083a6.852 6.852 0 0 1-4.584-2.01 6.85 6.85 0 0 1-1.744-2.96l-.592-2.021a1.272 1.272 0 0 0-1.216-.915c-.167 0-.334.033-.496.103l-.005.002-1.933.829a6.837 6.837 0 0 1-7.848-1.719l-1.413-1.577-.008-.009a1.207 1.207 0 0 0-.935-.416l-.043.001c-.369.015-.674.16-.912.432l-.002.003-1.384 1.588.003-.002a6.852 6.852 0 0 1-5.189 2.366 6.904 6.904 0 0 1-2.623-.518h-.003l-1.944-.804a1.34 1.34 0 0 0-.492-.096c-.19 0-.377.043-.564.131a1.23 1.23 0 0 0-.669.803l-.563 2.038a6.895 6.895 0 0 1-6.244 5.048l-2.103.122a1.272 1.272 0 0 0-.935.488 1.236 1.236 0 0 0-.273.774l.021.233.001.002.379 2.077a6.885 6.885 0 0 1-3.426 7.26l-1.845 1.024-.004.002a1.216 1.216 0 0 0-.622.832 1.234 1.234 0 0 0-.031.275c.001.264.081.516.251.755l1.243 1.691.003.004a6.891 6.891 0 0 1 1.321 4.058 6.852 6.852 0 0 1-1.264 3.971l.001-.002-1.219 1.731-.003.003a1.263 1.263 0 0 0 .134 1.629c.101.1.194.17.313.237l1.845.988a6.884 6.884 0 0 1 1.623 1.202 6.916 6.916 0 0 1 1.918 6.007l-.351 2.105-.019.209c.001.315.126.623.378.877.228.226.52.352.845.366l2.112.081c1.729.07 3.36.785 4.585 2.011a6.868 6.868 0 0 1 1.743 2.96l.593 2.022a1.27 1.27 0 0 0 1.215.914c.167 0 .335-.033.496-.103l.005-.002 1.935-.83-.003.002a6.837 6.837 0 0 1 7.849 1.718l1.414 1.578.007.008c.244.274.556.413.934.416h.044c.368-.016.674-.162.912-.433l.002-.003 1.382-1.585a6.846 6.846 0 0 1 5.188-2.367c.881 0 1.773.169 2.623.518h.003l1.942.804a1.3 1.3 0 0 0 1.061-.035c.334-.164.563-.438.666-.803l.564-2.037a6.894 6.894 0 0 1 6.243-5.049l2.11-.122.006-.001c.357-.02.676-.18.937-.486.178-.232.268-.491.269-.765l-.022-.232v-.003l-.38-2.078v.003a6.887 6.887 0 0 1 3.426-7.262l1.845-1.023.004-.003c.336-.189.535-.455.622-.828.021-.096.031-.189.031-.279a1.295 1.295 0 0 0-.25-.755l-1.244-1.69-.002-.004a6.884 6.884 0 0 1-.058-8.028l1.219-1.73.001-.003a1.264 1.264 0 0 0-.133-1.629zM31.396 54.651C18.909 54.65 8.787 44.532 8.786 32.05c.001-12.483 10.123-22.601 22.61-22.602 12.488.001 22.609 10.119 22.61 22.602-.001 12.482-10.122 22.6-22.61 22.601zm14.783-37.379a20.84 20.84 0 0 0-14.783-6.121 20.84 20.84 0 0 0-14.783 6.121A20.823 20.823 0 0 0 10.49 32.05a20.82 20.82 0 0 0 6.123 14.777 20.84 20.84 0 0 0 14.783 6.121 20.84 20.84 0 0 0 14.783-6.121 20.826 20.826 0 0 0 6.124-14.777 20.828 20.828 0 0 0-6.124-14.778zM42.048 30.78c.196.38.403.923.404 1.58 0 .367-.069.766-.238 1.173l.002.001-.006.015-.001.002a3.815 3.815 0 0 1-.705 1.172c.064.276.111.58.111.914a3.588 3.588 0 0 1-1.265 2.767 4.743 4.743 0 0 1-.366 1.4c-.261.584-.712 1.184-1.465 1.494l-.008.003-.007.003c-.164.056-2.519.815-6.224.816h-.001c-.373 0-.759-.008-1.156-.024-1.531-.066-3.3-.313-4.588-.491-.35-.049-.668-.092-.941-.127l-.197.038H18.81a.566.566 0 0 1-.576-.558V27.033c0-.307.257-.558.576-.558h6.467c1.307-.48 3.731-1.427 4.94-2.734.697-.746 1.201-1.333 1.53-2.007.329-.673.499-1.45.5-2.621v-.102l-.001-.004.001-.008a3.095 3.095 0 0 1 .486-1.54 2.047 2.047 0 0 1 1.758-.935h.015c.34 0 .7.07 1.072.202l.029.01.027.017.234.147.022.022c.473.465 1.601 1.883 1.598 4.581 0 1.099-.199 2.419-.683 3.962H39.594c.138 0 .654.019 1.243.326.585.303 1.229.907 1.599 2.001h.001l.009.023h.001-.001c.07.166.205.547.205 1.077.001.522-.149 1.187-.603 1.888zm-17.779-2.602h-4.332v11.636h4.332V28.178zm16.633.295l-.004-.009-.004-.009-.033-.08-.003-.01c-.211-.638-.513-.927-.762-1.077a1.013 1.013 0 0 0-.479-.153H35.631a.837.837 0 0 1-.784-1.139c.706-1.809.946-3.251.946-4.382-.004-1.869-.639-2.887-.985-3.368a1.525 1.525 0 0 0-.301-.05h-.001a.423.423 0 0 0-.284.094.68.68 0 0 0-.179.253 1.52 1.52 0 0 0-.115.496v.107c.001 1.352-.208 2.36-.631 3.243-.423.883-1.045 1.628-1.847 2.489-1.498 1.598-4.051 2.59-5.477 3.123v11.841c.24.031.498.066.795.108 1.264.175 2.991.414 4.427.476.371.016.731.023 1.077.023 1.725 0 3.14-.179 4.124-.358.947-.172 1.481-.34 1.522-.353.317-.127.533-.51.648-.919.116-.404.13-.796.13-.837a.837.837 0 0 1 .354-.679c.727-.521.883-1.13.888-1.648a2.414 2.414 0 0 0-.167-.877.832.832 0 0 1 .396-1.081c.025-.006.15-.129.244-.285.098-.154.186-.339.231-.463l.001-.005.004-.009c.085-.203.117-.396.117-.579.003-.597-.368-1.085-.382-1.099h.001a.828.828 0 0 1 .019-1.057c.474-.557.566-1.014.568-1.322a1.08 1.08 0 0 0-.068-.405zm-6.055-2.477v.002-.002zM45.618 7.43l.002.006-.002-.006zm-4.245-2.001l.003-.001v-.001l-.003.002zm-24.209 51.24l-.004-.015.004.015zm16.787 3.699l-.002.003h-.001l.003-.003zm25.583-32.523l-.001.001-.001.001.002-.002zm1.719 13.079v-.001l.004-.002-.004.003zm-4.039 8.564v-.002-.001.003zM33.852 63.075l.002-.003-.002.003zm-13.708-2.01l.004-.002-.004.002zM5.578 14.622v.001l.001.001-.001-.002z" class="cls-3"/></svg>