<svg xmlns="http://www.w3.org/2000/svg" preserveAspectRatio="xMidYMid" width="49.063" height="63.09" viewBox="0 0 49.063 63.09"><defs><style>.cls-1{fill:#00abd0}.cls-1,.cls-2,.cls-3{fill-rule:evenodd}.cls-2{fill:#fff}.cls-3{fill:#555}</style></defs><path d="M39.454 62.237H9.613c-4.823 0-8.77-3.945-8.77-8.767V32.652c0-4.822 3.947-8.767 8.77-8.767h29.841c4.823 0 8.77 3.945 8.77 8.767V53.47c0 4.822-3.947 8.767-8.77 8.767z" class="cls-1"/><path d="M28.623 43.584a4.089 4.089 0 0 0-4.09-4.087 4.088 4.088 0 0 0-1.606 7.846v4.438c0 .883.723 1.606 1.606 1.606.884 0 1.607-.723 1.607-1.606v-4.438a4.086 4.086 0 0 0 2.483-3.759z" class="cls-2"/><path d="M39.454 63.088H9.613c-5.297-.003-9.618-4.322-9.621-9.618V32.652c.003-5.03 3.902-9.171 8.833-9.578V15.69c0-4.324 1.775-8.264 4.61-11.093A15.682 15.682 0 0 1 24.534-.014a15.682 15.682 0 0 1 11.097 4.61 15.67 15.67 0 0 1 4.611 11.094v7.384c4.93.407 8.83 4.548 8.833 9.578V53.47c-.003 5.296-4.324 9.615-9.621 9.618zm-.915-47.398c0-3.853-1.582-7.363-4.113-9.89a13.974 13.974 0 0 0-9.892-4.111 13.973 13.973 0 0 0-9.894 4.112 13.962 13.962 0 0 0-4.112 9.889v7.218h3.975v-7.219c0-2.754 1.124-5.255 2.948-7.081a10.001 10.001 0 0 1 7.083-2.946c2.755 0 5.257 1.125 7.083 2.948a9.99 9.99 0 0 1 2.947 7.08v7.218h3.975V15.69zm-22.333 0v7.344h16.655V15.69c-.001-2.288-.927-4.349-2.449-5.876-1.528-1.522-3.59-2.448-5.878-2.449-2.289.001-4.351.927-5.878 2.448-1.523 1.528-2.449 3.589-2.45 5.877zm31.166 16.962a7.887 7.887 0 0 0-2.327-5.59 7.891 7.891 0 0 0-5.591-2.326H9.613a7.891 7.891 0 0 0-5.591 2.326 7.887 7.887 0 0 0-2.327 5.59V53.47c0 2.176.889 4.151 2.327 5.59a7.895 7.895 0 0 0 5.591 2.326h29.841a7.895 7.895 0 0 0 5.591-2.326 7.887 7.887 0 0 0 2.327-5.59V32.652zm-20.38 15.207v3.922a2.463 2.463 0 0 1-2.459 2.457 2.461 2.461 0 0 1-2.458-2.457v-3.922a4.929 4.929 0 0 1-2.483-4.275 4.941 4.941 0 0 1 9.883 0 4.929 4.929 0 0 1-2.483 4.275zm-2.459-7.511a3.241 3.241 0 0 0-3.237 3.236 3.238 3.238 0 0 0 1.966 2.977l.516.22v5a.752.752 0 0 0 .223.532.75.75 0 0 0 1.065 0 .747.747 0 0 0 .222-.532v-5l.517-.22a3.238 3.238 0 0 0 1.966-2.977 3.241 3.241 0 0 0-3.238-3.236z" class="cls-3"/></svg>