<svg xmlns="http://www.w3.org/2000/svg" preserveAspectRatio="xMidYMid" width="49.063" height="64.25" viewBox="0 0 49.063 64.25"><defs><style>.cls-1{fill:#00a761}.cls-1,.cls-2,.cls-3{fill-rule:evenodd}.cls-2{fill:#fff}.cls-3{fill:#444}</style></defs><path d="M39.454 63.397H9.613c-4.823 0-8.77-3.945-8.77-8.767V33.812c0-4.822 3.947-8.767 8.77-8.767h29.841c4.823 0 8.77 3.945 8.77 8.767V54.63c0 4.822-3.947 8.767-8.77 8.767z" class="cls-1"/><path d="M9.739 24.92h5.615V14.85c.001-2.522 1.026-4.802 2.699-6.478 1.677-1.673 3.958-2.698 6.481-2.698 2.522 0 4.803 1.025 6.48 2.698 1.673 1.676 2.698 3.956 2.699 6.478v10.07h5.678V14.85c0-4.087-1.678-7.813-4.362-10.492a14.825 14.825 0 0 0-10.495-4.36 14.825 14.825 0 0 0-10.496 4.36A14.818 14.818 0 0 0 9.676 14.85v10.073l.063-.003zM28.623 44.744a4.089 4.089 0 0 0-4.09-4.087 4.088 4.088 0 0 0-1.606 7.846v4.438c0 .883.723 1.606 1.606 1.606.884 0 1.607-.723 1.607-1.606v-4.438a4.086 4.086 0 0 0 2.483-3.759z" class="cls-2"/><path d="M39.454 64.248H9.613c-5.297-.003-9.618-4.322-9.621-9.618V33.812c.003-5.03 3.902-9.171 8.833-9.578V16.85c0-4.324 1.775-8.264 4.61-11.093a15.682 15.682 0 0 1 11.099-4.611 15.682 15.682 0 0 1 11.097 4.61 15.67 15.67 0 0 1 4.611 11.094v7.384c4.93.407 8.83 4.548 8.833 9.578V54.63c-.003 5.296-4.324 9.615-9.621 9.618zm-.915-47.398c0-3.853-1.582-7.363-4.113-9.89a13.974 13.974 0 0 0-9.892-4.111 13.973 13.973 0 0 0-9.894 4.112 13.962 13.962 0 0 0-4.112 9.889v7.218h3.974v-7.219c0-2.754 1.125-5.255 2.949-7.08a9.998 9.998 0 0 1 7.083-2.947c2.755 0 5.257 1.125 7.083 2.948a9.99 9.99 0 0 1 2.947 7.08v7.218h3.975V16.85zm-22.333 0v7.343h16.655V16.85c-.001-2.288-.927-4.349-2.449-5.876-1.528-1.522-3.59-2.447-5.878-2.449-2.289.002-4.351.927-5.878 2.448-1.523 1.528-2.449 3.589-2.45 5.877zm31.166 16.962a7.887 7.887 0 0 0-2.327-5.59 7.891 7.891 0 0 0-5.591-2.326H9.613a7.891 7.891 0 0 0-5.591 2.326 7.887 7.887 0 0 0-2.327 5.59V54.63c0 2.176.889 4.151 2.327 5.59a7.89 7.89 0 0 0 5.591 2.325h29.841a7.89 7.89 0 0 0 5.591-2.325 7.887 7.887 0 0 0 2.327-5.59V33.812zm-20.38 15.207v3.922a2.463 2.463 0 0 1-2.459 2.457 2.462 2.462 0 0 1-2.458-2.457v-3.922a4.929 4.929 0 0 1-2.483-4.275 4.941 4.941 0 0 1 9.883 0 4.929 4.929 0 0 1-2.483 4.275zm-2.459-7.511a3.235 3.235 0 1 0-1.271 6.212l.516.221v5a.75.75 0 0 0 .223.532.75.75 0 0 0 1.065 0 .75.75 0 0 0 .222-.532v-5l.517-.221a3.235 3.235 0 0 0-1.272-6.212z" class="cls-3"/></svg>