<svg xmlns="http://www.w3.org/2000/svg" preserveAspectRatio="xMidYMid" width="59.125" height="61.5" viewBox="0 0 59.125 61.5"><defs><style>.cls-1{fill:#fdc753}.cls-1,.cls-2,.cls-3,.cls-4,.cls-5{fill-rule:evenodd}.cls-2{fill:#ffdfb6}.cls-3{fill:#00a761}.cls-4{fill:#444}.cls-5{fill:#fff}</style></defs><path d="M9.554 16.258V8.983S11.769.803 21.556.803c9.788 0 12.002 8.18 12.002 8.18v6.024L18.951 10.71l-9.397 5.548z" class="cls-1"/><path d="M33.417 23.675a15.485 15.485 0 0 1 0 0c-.59 4.264-2.903 7.842-6.405 9.652V36.796l-5.456 4.908-5.455-4.908v-3.469c-3.503-1.81-5.816-5.388-6.405-9.652a15.484 15.484 0 0 0 0 0c-1.691-.23-3.415-1.844-3.415-3.24 0-1.505 1.462-2.181 3.273-2.181v-2.872s6.476-1.418 9.439-5.089c4.674 2.837 14.565 4.339 14.565 4.339v3.622c1.812 0 3.274.676 3.274 2.181 0 1.396-1.724 3.01-3.415 3.24zM19.496 34.428z" class="cls-2"/><path d="M42.287 49.339v2.727H.825v-2.727s.098-5.967 10.366-9.271c0 0 3.721-1.941 4.91-3.272l5.455 4.908 5.456-4.908c1.189 1.331 4.91 3.272 4.91 3.272 10.333 3.272 10.365 9.271 10.365 9.271z" class="cls-3"/><path d="M.007 52.884v-3.559c.004-.267.229-6.564 10.866-10.014.973-.512 3.375-1.872 4.409-2.848v-2.651c-3.314-1.893-5.581-5.293-6.306-9.456-1.879-.537-3.514-2.299-3.514-3.921 0-1.64 1.234-2.729 3.274-2.955V8.874l.028-.104c.025-.091.624-2.252 2.503-4.413C13 2.362 16.192-.015 21.556-.015s8.556 2.377 10.289 4.372c1.879 2.161 2.478 4.322 2.503 4.413l.029.104v8.606c2.039.226 3.273 1.315 3.273 2.955 0 1.622-1.635 3.384-3.513 3.921-.725 4.162-2.991 7.562-6.307 9.456v2.651c1.034.975 3.434 2.334 4.408 2.847 10.709 3.418 10.866 9.756 10.867 10.025v3.549H.007zm8.729-33.759c-1.459.204-1.637.958-1.637 1.31 0 .669.723 1.578 1.666 2.081-.018-.324-.029-3.391-.029-3.391zM30.564 5.377c-2.194-2.492-5.224-3.756-9.008-3.756-3.811 0-6.857 1.281-9.053 3.808C11.077 7.07 10.5 8.7 10.372 9.103l.014 5.1c.133-.03.269-.06.432-.103.825-.216 2.015-.617 3.436-1.355 2.729-1.416 4.036-3.034 4.072-3.078l.493-.631.66.454.014.009.066.043c.061.039.157.099.289.177.262.156.666.384 1.215.66 1.1.553 2.783 1.303 5.091 2.067a25.44 25.44 0 0 0 6.588 1.263l-.002-4.605c-.13-.406-.728-2.082-2.176-3.727zm5.449 15.058c0-.352-.178-1.106-1.636-1.31 0 0-.011 3.067-.029 3.391.942-.503 1.665-1.412 1.665-2.081zm-3.407 3.128c.011-.084.137-1.089.137-2.299l-.001-5.851a27.035 27.035 0 0 1-7.123-1.351c-3.394-1.123-5.498-2.218-6.467-2.78-.67.685-2.006 1.879-4.112 2.974-2.116 1.098-3.774 1.52-4.65 1.684.004 1.754.007 3.424.007 4.406 0 2.691.098 3.132.109 3.215.563 4.075 2.74 7.369 5.971 9.04 1.525.793 3.233 1.195 5.079 1.195 1.846 0 3.554-.402 5.078-1.194 3.233-1.672 5.409-4.966 5.972-9.039zm-15.687 11.03v1.839l4.637 4.172 4.637-4.172v-1.839c-1.437.557-2.992.839-4.637.839-1.645 0-3.199-.282-4.637-.839zm24.55 14.754c-.003-.069-.071-1.4-1.241-3.064-2.037-2.899-5.776-4.556-8.553-5.435 0 0-3.159-1.651-4.678-2.939l-4.622 4.159v5.089h-1.637v-5.089l-4.623-4.159c-1.519 1.288-4.673 2.938-4.673 2.938-2.762.888-6.483 2.555-8.535 5.451-1.165 1.645-1.258 2.96-1.263 3.056v1.893h39.825v-1.9z" class="cls-4"/><path d="M55.09 49.296c0 6.267-5.082 11.347-11.351 11.347-6.268 0-11.35-5.08-11.35-11.347 0-6.266 5.082-11.346 11.35-11.346 6.269 0 11.351 5.08 11.351 11.346z" class="cls-5"/><path d="M58.853 38.228l-4.773 4.614a12.126 12.126 0 0 1 1.861 6.454c0 6.737-5.462 12.197-12.202 12.198-6.739-.001-12.201-5.461-12.202-12.198.001-6.737 5.463-12.197 12.202-12.198a12.178 12.178 0 0 1 9.334 4.349l4.596-4.443a.853.853 0 0 1 1.184 1.224zm-7.69 3.647a10.47 10.47 0 0 0-7.424-3.074 10.467 10.467 0 0 0-7.423 3.074 10.456 10.456 0 0 0-3.076 7.421 10.46 10.46 0 0 0 3.075 7.421 10.463 10.463 0 0 0 7.424 3.074c2.902 0 5.521-1.173 7.424-3.074a10.455 10.455 0 0 0 3.075-7.421c0-1.913-.519-3.699-1.412-5.242l-9.079 8.774a.852.852 0 0 1-1.167.016l-5.842-5.339a.852.852 0 1 1 1.15-1.257l5.251 4.8 8.709-8.418a10.624 10.624 0 0 0-.685-.755z" class="cls-4"/></svg>