<svg xmlns="http://www.w3.org/2000/svg" preserveAspectRatio="xMidYMid" width="150" height="95.22" viewBox="0 0 150 95.22"><defs><style>.cls-1{fill:#cbcccd}.cls-1,.cls-2,.cls-3,.cls-4{fill-rule:evenodd}.cls-2{fill:#cfe9f8}.cls-3{fill:#444}.cls-4{fill:#fff}</style></defs><path d="M148.865 72.756h-2.2v2.202a1.136 1.136 0 1 1-2.269 0v-2.202h-2.2a1.135 1.135 0 1 1 0-2.27h2.2v-2.203a1.135 1.135 0 1 1 2.269 0v2.203h2.2a1.134 1.134 0 1 1 0 2.27zm-30.839-57.407h-2.2v2.202a1.135 1.135 0 1 1-2.269 0v-2.202h-2.2a1.135 1.135 0 1 1 0-2.27h2.2v-2.203a1.135 1.135 0 1 1 2.269 0v2.203h2.2a1.135 1.135 0 1 1 0 2.27zm-6.469 70.527a1.135 1.135 0 1 1 2.269 0v2.203h2.2a1.135 1.135 0 1 1 0 2.27h-2.2v2.202a1.135 1.135 0 1 1-2.269 0v-2.202h-2.2a1.135 1.135 0 1 1 0-2.27h2.2v-2.203zM7.804 66.048h-2.2v2.202a1.135 1.135 0 1 1-2.269 0v-2.202h-2.2a1.135 1.135 0 1 1 0-2.27h2.2v-2.203a1.135 1.135 0 1 1 2.269 0v2.203h2.2a1.135 1.135 0 1 1 0 2.27z" class="cls-1"/><path d="M93.86 69.959H50.656V11.025H93.86v58.934z" class="cls-2"/><path d="M113.28 60.133a.851.851 0 1 1-1.696-.132c.051-.666.075-1.304.075-1.913-.003-4.526-1.321-7.527-2.632-9.43-1.313-1.901-2.638-2.698-2.65-2.704l.001-.001a.85.85 0 0 1 .86-1.468c.075.045 1.6.948 3.117 3.102 1.518 2.151 3.009 5.561 3.006 10.501 0 .654-.026 1.336-.081 2.045zM89.759 80.989H56.638a17.125 17.125 0 0 0-.123 2.073c0 1.414.165 3.231.764 5.117.6 1.887 1.625 3.841 3.358 5.576a.852.852 0 0 1-1.203 1.204c-1.952-1.952-3.112-4.166-3.777-6.265-.665-2.1-.843-4.087-.843-5.632 0-.842.053-1.545.111-2.073h-.168a4.955 4.955 0 0 1-4.952-4.956v-2.244h-3.56c-3.596-.003-6.524-2.934-6.527-6.533a6.528 6.528 0 0 1 2.522-5.142c-2.618-.843-4.521-3.301-4.523-6.196.002-2.735 1.703-5.079 4.1-6.039a6.192 6.192 0 0 1-2.502-4.959c.003-3.412 2.779-6.19 6.188-6.194h4.302V4.951a4.954 4.954 0 0 1 4.952-4.956h35.002a4.954 4.954 0 0 1 4.952 4.956v71.082a4.955 4.955 0 0 1-4.952 4.956zm-39.954-40.56h-4.302a4.47 4.47 0 0 0-3.168 1.32 4.478 4.478 0 0 0-1.319 3.171 4.478 4.478 0 0 0 1.319 3.17 4.465 4.465 0 0 0 3.168 1.32h4.302v-8.981zm0 10.684H44.22c-1.32 0-2.516.538-3.39 1.412a4.793 4.793 0 0 0-1.412 3.393 4.791 4.791 0 0 0 1.412 3.393 4.778 4.778 0 0 0 3.39 1.413h5.585v-9.611zm0 18.846v-7.532h-3.56a4.803 4.803 0 0 0-3.407 1.419 4.815 4.815 0 0 0-1.419 3.41 4.817 4.817 0 0 0 1.419 3.411 4.803 4.803 0 0 0 3.407 1.419h3.56v-2.127zM93.01 4.951a3.257 3.257 0 0 0-3.251-3.253H54.757a3.256 3.256 0 0 0-3.25 3.253v5.223H93.01V4.951zm0 6.926H51.507V69.107H93.01v-57.23zm0 58.933H51.507V76.033a3.256 3.256 0 0 0 3.25 3.253h35.002a3.257 3.257 0 0 0 3.251-3.253V70.81z" class="cls-3"/><path d="M82.92 82.718s-5.127-3.129-3.501-10.513c1.625-7.384 8.754-8.385 9.879-11.139 1.125-2.753-.273-4.336-3.502-6.007-3.626-1.877-8.128-5.882-5.002-9.512 3.127-3.629 12.868-.483 18.133 3.254 4.877 3.463 6.253 6.275 5.502 14.777-.75 8.502-2.876 20.391-14.006 29.903" class="cls-4"/><path d="M83.363 81.991l-.032.052.033-.052h-.001l-.032.052.033-.052c-.051-.031-.921-.595-1.758-1.737-.838-1.145-1.653-2.844-1.655-5.254 0-.79.088-1.659.298-2.612.381-1.722 1.068-3.041 1.912-4.128 1.265-1.629 2.907-2.727 4.406-3.691.748-.483 1.459-.93 2.072-1.421.609-.491 1.145-1.033 1.446-1.759.291-.711.448-1.392.448-2.054.008-1.113-.477-2.113-1.248-2.904-.772-.801-1.816-1.463-3.098-2.128-1.316-.68-2.768-1.671-3.847-2.782-.54-.554-.987-1.137-1.288-1.711-.302-.575-.458-1.132-.458-1.664.005-.657.219-1.309.844-2.042.374-.433.879-.756 1.535-.979.654-.221 1.453-.333 2.349-.333 1.973-.002 4.394.543 6.743 1.414 2.35.868 4.635 2.057 6.37 3.29 1.987 1.411 3.291 2.651 4.115 4.158.824 1.507 1.219 3.358 1.22 6.102 0 1.101-.064 2.341-.188 3.747-.372 4.215-1.083 9.227-3.057 14.341-1.976 5.114-5.204 10.329-10.654 14.989a.852.852 0 0 0 1.105 1.295c5.679-4.852 9.079-10.336 11.136-15.67 2.059-5.335 2.786-10.519 3.165-14.805.127-1.442.194-2.729.194-3.897.002-2.895-.421-5.081-1.428-6.92-1.008-1.84-2.551-3.257-4.624-4.729-1.885-1.338-4.279-2.579-6.764-3.499-2.488-.917-5.058-1.516-7.333-1.519-1.034.001-2.01.125-2.894.423-.881.297-1.675.778-2.278 1.479-.851.979-1.262 2.081-1.257 3.155 0 .869.254 1.697.654 2.457.602 1.141 1.529 2.15 2.568 3.028a18.089 18.089 0 0 0 3.291 2.184c1.202.62 2.102 1.219 2.652 1.795.55.587.765 1.082.773 1.725.001.388-.092.851-.32 1.409-.154.408-.673.924-1.491 1.488-1.214.855-2.986 1.815-4.628 3.298-1.644 1.481-3.158 3.532-3.804 6.492A13.774 13.774 0 0 0 78.249 75c-.003 2.899 1.039 5.026 2.084 6.394 1.045 1.373 2.083 2.012 2.144 2.05a.85.85 0 1 0 .886-1.453z" class="cls-3"/></svg>