<svg xmlns="http://www.w3.org/2000/svg" preserveAspectRatio="xMidYMid" width="52.531" height="64.53" viewBox="0 0 52.531 64.53"><defs><style>.cls-1{fill:#fdc753}.cls-1,.cls-2,.cls-3{fill-rule:evenodd}.cls-2{fill:#fff}.cls-3{fill:#444}</style></defs><path d="M37.042 7.991C29.03 4.612 26.276.858 26.276.858S23.522 4.612 15.51 7.991C7.497 11.37.862 10.744.862 10.744v25.029c0 5.757 2.129 11.638 10.266 17.77S26.276 63.68 26.276 63.68s7.011-4.005 15.148-10.137c8.137-6.132 10.265-12.013 10.265-17.77V10.744s-6.635.626-14.647-2.753z" class="cls-1"/><path d="M37.181 19.864L21.336 35.703l-4.295-4.293-3.01 3.009 7.305 7.302 18.855-18.848-3.01-3.009z" class="cls-2"/><path d="M50.363 44.912c-1.62 3.091-4.283 6.189-8.427 9.311-8.182 6.166-15.218 10.184-15.238 10.196a.85.85 0 0 1-.845 0c-.02-.012-7.055-4.03-15.238-10.196-4.143-3.122-6.806-6.22-8.426-9.311C.568 41.823.009 38.755.011 35.773V13.846v-3.102a.848.848 0 0 1 .931-.847l.071.005.242.015c.216.01.54.021.957.021 2.257.001 7.26-.324 12.967-2.731C22.8 3.991 25.498.472 25.589.355a.855.855 0 0 1 .687-.348c.27 0 .527.13.687.348l.017.022.085.104c.079.096.206.242.385.431.358.378.924.927 1.739 1.582 1.629 1.312 4.25 3.054 8.184 4.713 5.707 2.407 10.709 2.732 12.966 2.732.731 0 1.174-.034 1.257-.041l.014-.001a.848.848 0 0 1 .931.847v25.029c.002 2.982-.557 6.05-2.178 9.139zM36.711 8.776c-6.026-2.54-9.169-5.309-10.435-6.629-1.266 1.32-4.41 4.089-10.435 6.629-5.987 2.523-11.212 2.864-13.629 2.865-.186 0-.346-.003-.498-.006v24.138c.002 2.775.507 5.526 1.984 8.349 1.479 2.822 3.949 5.731 7.943 8.742 6.926 5.219 13.029 8.887 14.635 9.831.199-.117.452-.267.784-.466.778-.468 1.902-1.156 3.28-2.035a168.635 168.635 0 0 0 10.571-7.33c3.994-3.011 6.464-5.92 7.943-8.742 1.477-2.823 1.982-5.574 1.984-8.349V13.846v-2.211c-.153.003-.312.006-.499.006-2.417 0-7.642-.342-13.628-2.865zM12.827 34.419l4.214-4.213 4.295 4.293 15.243-15.237.602-.602 4.215 4.212-20.06 20.053-8.509-8.506zm24.354-13.351l-15.845 15.84-4.295-4.294-1.805 1.805 6.1 6.097 17.65-17.644-1.805-1.804z" class="cls-3"/></svg>